<svg width="48" height="48" viewBox="0 0 48 48" fill="none" xmlns="http://www.w3.org/2000/svg">
<path opacity="0.4" d="M4 24C4 35.0457 12.9543 44 24 44C35.0457 44 44 35.0457 44 24C44 12.9543 35.0457 4 24 4C12.9543 4 4 12.9543 4 24Z" fill="#B3A1E6"/>
<path d="M15.4399 26.5198C15.4399 26.1398 15.5799 25.7598 15.8799 25.4598L22.9399 18.3998C23.5199 17.8198 24.4799 17.8198 25.0599 18.3998L32.1199 25.4598C32.6999 26.0398 32.6999 26.9998 32.1199 27.5798C31.5399 28.1598 30.5799 28.1598 29.9999 27.5798L23.9999 21.5798L17.9999 27.5798C17.4199 28.1598 16.4599 28.1598 15.8799 27.5798C15.5799 27.2998 15.4399 26.9198 15.4399 26.5198Z" fill="#7B57DF"/>
</svg>
