<svg width="290" height="300" viewBox="0 0 290 300" fill="none" xmlns="http://www.w3.org/2000/svg">
<g clip-path="url(#clip0_5_2285)">
<path d="M118.435 39.3391L113.913 43.9L126.247 53.0219L135.703 48.0809L132.414 42.3797L118.435 39.3391Z" fill="#C3C8E6"/>
<path d="M136.347 48.2595C142.349 48.8182 144.347 60.0952 146.461 64.5497C151.036 77.8562 155.653 91.1704 160.924 104.253C159.892 105.218 157.557 104.564 158.05 106.526C158.642 109.163 158.909 111.911 159.695 114.507C160.809 118.179 161.286 115.982 164.217 115.647C166.215 121.888 168.653 128.323 170.976 134.435C171.872 137.373 173.627 141.611 168.484 141.877C148.121 142.397 127.553 144.032 107.12 144.929C103.425 144.066 103.256 141.246 102.952 138.502C115.162 134.332 128.121 130.144 139.164 123.834C143.382 122.458 147.998 122.884 151.99 120.748C104.962 131.352 64.882 128.194 90.7743 73.7628C96.4437 63.4779 102.323 49.8635 113.661 44.2079C120.992 46.5454 128.375 49.4644 136.347 48.2595ZM125.296 79.787C125.3 79.787 125.304 79.787 125.304 79.787C125.304 85.549 125.341 91.3148 125.271 97.0768C125.259 98.2209 125.559 98.7112 126.809 99.057C134.608 101.239 142.366 103.534 150.152 105.754C151.246 106.066 151.797 106.499 151.982 107.651C152.553 111.22 153.31 114.762 154.005 118.312C154.091 118.764 153.935 119.536 154.736 119.403C155.505 119.273 155.123 118.582 155.041 118.129C154.346 114.45 153.552 110.786 152.96 107.092C152.751 105.796 152.085 105.313 150.847 104.963C143.381 102.858 135.956 100.642 128.474 98.5971C126.805 98.141 126.254 97.5177 126.266 95.891C125.933 84.3594 127.191 72.1855 125.896 60.9503C125.461 60.8743 125.358 61.2278 125.337 61.5471C125.226 67.6283 125.329 73.7096 125.296 79.787Z" fill="#F9F9FC"/>
<path d="M136.171 232.966C133.47 238.542 130.753 244.114 128.068 249.697C124.491 257.128 120.915 264.562 117.395 272.016C116.762 273.353 115.792 274.167 114.308 274.524C112.663 274.919 111.019 275.315 109.374 275.71C103.368 275.413 97.3738 274.832 91.3468 274.916C89.5173 275.033 89.4844 274.053 89.7105 272.764C92.4815 256.839 95.2483 240.91 97.9658 224.977C100.971 207.357 103.878 189.721 106.949 172.108C107.574 168.52 107.722 164.944 107.738 161.34C110.813 160.329 113.88 159.299 116.964 158.311C124.438 155.909 131.908 153.499 139.394 151.139C144.357 149.573 149.343 148.087 154.318 146.555C155.732 146.118 156.493 146.316 156.263 147.935C155.901 150.501 155.736 153.081 155.843 155.67C156.049 160.786 155.786 165.894 154.968 170.949C153.689 178.839 152.057 186.669 149.767 194.381C147.715 201.298 145.615 208.204 143.111 214.992C140.891 221.013 138.49 226.976 136.171 232.966Z" fill="#B3A1E6"/>
<path d="M143.448 278.929C140.34 279.256 140.43 279.248 140.176 276.257C139.485 268.086 138.704 259.918 137.98 251.75C137.857 250.37 137.828 248.987 137.754 247.603C138.453 245.976 138.424 244.205 139.049 242.537C143.403 230.933 147.724 219.321 151.925 207.672C154.466 200.625 156.711 193.491 159.21 186.433C160.711 182.199 161.126 178.056 159.749 173.674C158.746 170.489 157.356 167.331 157.122 163.993C156.723 158.319 157.414 152.64 157.488 146.962C157.496 146.305 157.517 145.655 158.363 145.434C161.636 144.583 164.711 143.112 168.132 142.713C168.156 149.17 168.21 155.628 168.206 162.082C168.177 198.303 168.132 234.528 168.091 270.75C168.086 273.772 167.725 274.201 164.555 274.866C163.021 275.189 161.467 275.44 159.926 275.725C154.38 276.565 148.867 277.55 143.448 278.929Z" fill="#B3A1E6"/>
<path d="M168.128 142.713C164.707 143.112 161.632 144.583 158.359 145.434C157.517 145.655 157.492 146.305 157.484 146.962C157.414 152.641 156.719 158.315 157.118 163.993C157.352 167.331 158.742 170.485 159.745 173.674C161.122 178.06 160.707 182.199 159.206 186.433C156.707 193.491 154.462 200.629 151.921 207.672C147.72 219.322 143.399 230.937 139.045 242.537C138.42 244.205 138.449 245.976 137.75 247.603C137.224 242.723 136.697 237.847 136.167 232.966C138.486 226.976 140.887 221.009 143.107 214.989C145.611 208.2 147.711 201.294 149.763 194.377C152.049 186.669 153.685 178.839 154.964 170.945C155.782 165.89 156.045 160.786 155.839 155.666C155.732 153.074 155.897 150.493 156.259 147.931C156.489 146.312 155.728 146.115 154.314 146.552C149.339 148.083 144.353 149.569 139.39 151.135C131.904 153.499 124.434 155.905 116.96 158.307C113.876 159.299 110.809 160.326 107.734 161.337C107.479 155.894 107.224 150.451 106.969 145.009C121.433 144.245 135.896 143.477 150.359 142.713C155.884 142.42 161.414 142.135 166.939 141.842C167.416 141.816 167.889 141.694 168.333 141.956C168.267 142.211 168.197 142.462 168.128 142.713Z" fill="#7B57DF"/>
<path opacity="0.5" d="M36.5363 233.232C39.6895 232.537 42.4975 233.278 44.8203 235.254C52.6974 241.955 57.0265 250.461 59.2342 259.986C60.2003 264.148 60.4552 268.367 59.1766 272.521C58.0707 276.105 56.1097 279.104 51.9491 280.309C51.8751 279.811 51.7806 279.313 51.7354 278.811C51.4147 275.22 51.1146 271.624 50.7692 268.032C50.7199 267.515 50.8556 266.58 50.1156 266.637C49.1823 266.713 49.6757 267.626 49.6304 268.192C49.6181 268.378 49.6715 268.568 49.6839 268.758C49.91 272.863 50.6253 276.934 50.5966 281.054C49.8812 281.058 49.17 281.058 48.4546 281.061C48.3436 280.769 48.1956 280.488 48.1257 280.187C44.5449 264.475 40.4871 248.865 36.5363 233.232Z" fill="#B3A1E6"/>
<path opacity="0.5" d="M43.2128 281.423C38.7522 280.932 36.0922 278.192 33.9873 274.912C29.2389 267.496 26.3528 259.416 24.8769 250.959C24.2109 247.147 23.9724 243.168 25.8225 239.454C27.7342 235.623 31.0684 233.662 35.5619 233.286C35.5578 233.476 35.5126 233.673 35.5578 233.852C38.0574 243.875 40.6063 253.886 43.0484 263.92C44.4832 269.819 46.2305 275.661 47.0979 281.67C46.0825 282.137 45.3794 281.525 44.6394 281.058C44.0515 278.789 43.4718 276.516 42.8675 274.247C42.7359 273.756 42.8593 272.859 42.037 273.049C41.26 273.228 41.7287 274.007 41.8315 274.536C42.2919 276.827 42.7565 279.127 43.2128 281.423Z" fill="#B3A1E6"/>
<path d="M122.6 29.4C115.887 26.7357 111.668 19.7726 113.025 13.5887C114.115 8.62491 118.049 5.58809 124.475 4.80513C126.103 4.60748 127.743 4.47826 129.38 4.38324C134.338 4.09818 139.09 3.14418 143.732 1.42243C148.908 -0.496971 153.233 2.89713 152.312 8.00919C151.699 11.4071 149.87 14.022 146.141 15.1851C142.396 16.0707 138.687 15.7552 134.971 14.957C132.126 14.3489 131.242 15.0102 131.036 17.7354C131.012 18.0509 131.008 18.3663 130.971 18.6818C130.687 21.0839 130.107 21.4526 127.501 20.8939C125.342 20.4302 122.9 21.5172 122.247 23.2617C121.922 24.1245 121.971 24.9949 122.251 25.8729C122.571 26.8839 123.574 27.1271 124.643 27.6669C123.077 27.5794 123.143 28.7425 122.6 29.4Z" fill="#1B2149"/>
<path d="M43.2128 281.803C42.7524 279.507 42.2878 277.211 41.8397 274.912C41.7369 274.387 41.2682 273.608 42.0452 273.426C42.8634 273.236 42.7441 274.133 42.8757 274.623C43.4801 276.888 44.0597 279.161 44.6476 281.434C45.0218 283.285 45.4 285.136 45.77 286.987C46.3785 290.031 47.0157 293.072 47.5789 296.124C47.9448 298.1 49.5975 297.04 50.6747 297.283C51.5915 297.489 51.8628 296.937 51.8011 296.173C51.4064 291.259 51.3283 286.326 50.5965 281.438C50.6253 277.318 49.91 273.243 49.6839 269.142C49.6715 268.952 49.6181 268.762 49.6304 268.576C49.6756 268.01 49.1823 267.097 50.1155 267.021C50.8555 266.961 50.7199 267.896 50.7692 268.416C51.1146 272.008 51.4147 275.604 51.7353 279.195C51.7806 279.697 51.8751 280.195 51.9491 280.693C52.3438 286.128 52.7385 291.563 53.1332 296.994C53.129 297.249 53.2606 297.318 53.5073 297.226C54.1651 297.203 54.8229 297.184 55.4807 297.162C56.8867 297.382 58.2927 297.31 59.7029 297.226C70.5194 297.222 81.336 297.211 92.1526 297.219C127.143 297.238 162.129 297.261 197.12 297.28C198.008 297.28 198.892 297.219 199.78 297.184C200.133 297.268 200.133 297.139 199.977 296.911C199.212 294.155 198.431 291.403 197.691 288.64C197.527 288.025 196.848 287.101 197.847 286.846C198.649 286.641 198.616 287.713 198.789 288.26C199.475 290.419 200.104 292.593 201.14 294.729C201.498 291.662 201.848 288.599 202.23 285.535C202.296 285.022 202.053 284.106 202.892 284.182C203.883 284.269 203.418 285.189 203.361 285.74C203.048 288.701 202.666 291.654 202.329 294.615C202.02 297.291 202.033 297.295 204.869 297.295C221.166 297.291 237.467 297.287 253.764 297.283C265.061 297.279 276.363 297.28 287.661 297.276C288.208 297.276 288.758 297.276 289.305 297.302C289.651 297.321 290.021 297.386 290 297.815C289.979 298.214 289.626 298.31 289.281 298.336C288.939 298.359 288.598 298.329 288.257 298.329C209.984 298.355 131.711 298.386 53.4374 298.401C36.3183 298.405 19.1993 298.355 2.07615 298.332C1.87059 298.332 1.66092 298.355 1.45947 298.325C0.912682 298.241 -0.0328946 298.572 0.00410617 297.777C0.0369958 297.013 0.986683 297.306 1.53347 297.306C15.5033 297.287 29.4732 297.295 43.4431 297.295C43.8542 297.295 44.2694 297.253 44.6764 297.302C46.2428 297.504 46.6703 297.067 46.3209 295.535C45.2602 290.955 44.6147 286.307 43.2128 281.803Z" fill="#1B2149"/>
<path d="M122.6 29.4C123.139 28.7425 123.077 27.5756 124.652 27.6631C123.583 27.1233 122.58 26.8801 122.259 25.8691C121.979 24.9911 121.93 24.1169 122.255 23.2579C122.908 21.5134 125.351 20.4264 127.509 20.8901C130.111 21.4488 130.695 21.0801 130.979 18.678C131.016 18.3625 131.02 18.0471 131.045 17.7316C131.25 15.0064 132.13 14.3451 134.979 14.9532C138.695 15.7476 142.404 16.0669 146.149 15.1813C146.351 17.0817 146.729 18.9897 145.878 20.8482C144.632 20.4454 143.362 20.2515 142.042 20.3998C141.627 20.4454 141.117 20.529 141.117 20.9699C141.113 21.4792 141.647 21.4754 142.05 21.4146C143.378 21.2093 144.628 21.654 145.915 21.7718C146.166 24.2994 146.03 26.8231 145.516 29.305C144.509 34.1662 140.208 38.3471 133.922 37.1992C132.858 37.0054 132.381 37.2638 132.409 38.3167C132.442 39.4531 132.377 40.5895 132.352 41.726C127.809 41.0608 123.303 40.2323 118.838 39.2098C120.088 36.6709 120.779 34.4361 121.803 32.072C122.173 31.2016 122.707 30.392 122.6 29.4ZM139.493 29.7307C140.681 29.5939 142.071 29.4342 141.647 27.9063C141.244 26.4544 140.426 25.1013 139.769 23.714C139.653 23.4746 139.407 23.3226 139.098 23.4404C138.782 23.562 138.761 23.8091 138.876 24.0599C139.329 25.0519 139.748 26.0553 140.262 27.0207C140.813 28.0545 141.068 28.8489 139.3 28.7995C138.885 28.7881 138.157 28.6513 138.26 29.3202C138.346 29.8827 139.024 29.6889 139.493 29.7307ZM142.708 24.649C143.259 24.6224 143.584 24.3564 143.571 23.8471C143.559 23.2389 143.148 22.9577 142.531 23.0033C141.976 23.0489 141.754 23.4214 141.779 23.9079C141.808 24.4438 142.178 24.6376 142.708 24.649Z" fill="#F6C0B9"/>
<path opacity="0.5" d="M188.297 53.7707C180.017 53.7745 171.737 53.7783 163.457 53.7593C162.882 53.7593 162.08 54.0557 161.776 53.421C161.385 52.6076 162.343 52.4252 162.82 52.0375C166.261 49.2439 169.834 46.591 173.887 44.6032C179.265 41.9654 185.954 41.7868 190.702 46.3249C191.857 47.4309 192.898 47.4689 194.345 46.8836C199.216 44.9148 204.183 44.4169 209.19 46.5036C211.731 47.5602 213.885 49.0121 215.217 51.3876C216.241 53.2119 215.982 53.7555 213.754 53.7593C206.773 53.7745 199.792 53.7631 192.811 53.7631C191.307 53.7669 189.802 53.7669 188.297 53.7707Z" fill="#B3A1E6"/>
<path d="M106.41 282.593C108.145 286.934 111.007 290.126 116.183 291.191C119.833 291.939 122.625 293.817 124.261 297.295C110.238 297.295 96.3994 297.295 82.3843 297.295C83.3998 293.931 84.4852 290.624 85.9241 287.432C86.4051 286.367 87.2027 285.691 88.2551 287.086C88.4854 287.39 88.88 287.58 89.1432 287.865C91.0713 289.948 93.2914 290.772 96.2103 289.587C97.5094 289.058 98.9771 288.887 100.367 288.553C101.333 288.321 101.732 287.911 101.275 286.919C100.687 285.645 100.256 284.307 99.7583 282.996C101.941 282.365 104.19 282.726 106.41 282.593Z" fill="#5E3AC2"/>
<path d="M160.649 282.703C162.228 287.576 165.714 290.343 171.195 291.008C173.497 291.289 175.791 291.681 178.068 292.118C180.535 292.593 182.829 293.395 184.009 295.714C184.613 296.899 184.494 297.485 182.763 297.477C169.349 297.42 155.93 297.424 142.515 297.469C141.24 297.473 140.813 297.215 141.006 296.002C141.368 293.752 141.61 291.483 141.89 289.222C141.984 288.465 142.35 287.838 143.111 287.606C143.97 287.348 144.241 288.154 144.657 288.602C147.021 291.168 147.929 291.419 151.411 290.385C152.776 289.978 154.125 289.499 155.51 289.169C156.818 288.857 156.916 288.26 156.37 287.249C155.757 286.12 155.268 284.934 154.721 283.775C156.592 282.939 158.602 282.734 160.649 282.703Z" fill="#5E3AC2"/>
<path d="M139.814 124.097C138.054 126.016 135.102 126.894 132.825 127.897C123.266 132.105 112.828 135.453 102.805 138.589C102.394 135.841 101.913 133.097 101.604 130.337C101.423 128.737 101.168 126.499 101.584 124.857C108.848 125.932 115.825 126.67 123.135 126.069C128.43 125.632 134.519 124.606 139.814 124.097Z" fill="#C3C8E6"/>
<path opacity="0.5" d="M255.931 75.8494C249.566 75.8494 243.206 75.8532 236.842 75.8456C236.176 75.8456 235.309 76.0281 235.009 75.3249C234.651 74.4887 235.638 74.3139 236.152 74.006C238.894 72.3489 241.418 70.3383 244.436 69.1334C248.169 67.6435 251.93 67.4611 255.54 69.6503C256.444 70.1977 257.012 70.9958 257.546 71.7598C258.274 72.805 258.726 72.7974 259.729 72.0068C262.221 70.0456 264.979 68.6697 268.466 68.9396C271.191 69.1486 276.059 72.5275 276.824 74.9562C277.206 76.1725 276.186 75.8304 275.636 75.8342C270.776 75.8646 265.921 75.857 261.061 75.8608C259.351 75.8608 257.641 75.8608 255.931 75.8608C255.931 75.857 255.931 75.8532 255.931 75.8494Z" fill="#B3A1E6"/>
<path d="M106.41 282.593C104.194 282.726 101.941 282.361 99.7583 283.004C96.4816 284.087 93.1557 284.988 89.7598 285.698C88.4936 285.965 88.4401 285.717 88.6539 284.615C89.2911 281.316 90.948 278.268 91.3509 274.919C97.3779 274.836 103.372 275.417 109.378 275.714C108.7 278.123 107.874 280.476 106.41 282.593Z" fill="#F6C0B9"/>
<path opacity="0.5" d="M59.7069 296.842C58.2968 296.926 56.8867 296.998 55.4847 296.778C55.8054 290.054 58.3091 284.114 63.0699 279.02C64.0936 277.926 65.5202 277.211 67.0865 277.747C68.5542 278.253 69.0558 279.499 69.1504 280.959C69.3477 284.076 67.7854 286.588 65.9971 288.982C63.9949 291.666 61.8119 294.227 59.7069 296.842Z" fill="#B3A1E6"/>
<path d="M160.649 282.703C158.602 282.734 156.596 282.939 154.721 283.779C151.675 285.011 148.497 285.9 145.347 286.873C144.073 287.268 143.982 286.527 143.925 285.698C143.769 283.441 143.608 281.187 143.448 278.929C148.871 277.55 154.38 276.565 159.926 275.725C159.806 278.085 160.477 280.374 160.649 282.703Z" fill="#F6C0B9"/>
<path d="M47.102 281.666C46.2346 275.657 44.4873 269.815 43.0525 263.916C40.6104 253.882 38.0574 243.871 35.5619 233.848C35.5167 233.669 35.5619 233.472 35.566 233.282C35.8908 233.263 36.2115 233.248 36.5362 233.229C40.483 248.861 44.5449 264.475 48.1216 280.183C48.1915 280.484 48.3395 280.765 48.4505 281.058C48.3765 281.628 49.1371 282.396 48.3683 282.722C47.5419 283.072 47.3569 282.213 47.102 281.666Z" fill="#1B2149"/>
<path d="M136.204 48.3431C129.959 49.3351 124.142 47.6438 118.345 45.8726C116.721 45.3785 115.122 44.8198 113.514 44.2915C113.617 42.7028 114.567 43.615 115.212 43.8316C119.722 45.3367 124.236 46.8 129.001 47.4956C130.773 47.754 132.549 47.6894 134.325 47.7274C134.979 47.7426 135.896 47.3207 136.204 48.3431Z" fill="#1B2149"/>
<path d="M119.192 39.2973C123.431 40.2589 127.706 41.0456 132.015 41.6842C132.212 41.7146 132.825 41.6195 132.825 41.9996C132.825 42.5051 132.414 42.7598 131.698 42.661C128.302 42.0186 124.907 41.3649 121.515 40.7112C120.582 40.5325 119.619 40.4223 118.736 40.1258C118.119 39.9206 117.708 39.6051 118.028 39.3391C118.423 39.0008 118.896 39.2289 119.192 39.2973Z" fill="#1B2149"/>
<path d="M145.902 21.7718C144.616 21.654 143.366 21.2131 142.038 21.4146C141.639 21.4754 141.105 21.483 141.105 20.9699C141.109 20.5252 141.614 20.4454 142.03 20.3997C143.349 20.2515 144.624 20.4454 145.865 20.8482C145.882 21.1561 145.894 21.464 145.902 21.7718Z" fill="#1B2149"/>
<path d="M132.907 21.2169C132.895 21.5134 133.182 21.7452 133.495 21.6958C134.572 21.5286 135.633 21.2435 136.751 21.4146C137.15 21.4754 137.832 21.464 137.684 20.9699C137.285 19.6548 134.679 20.4112 133.281 20.7608C133.063 20.814 132.915 20.9927 132.907 21.1979C132.907 21.2055 132.907 21.2093 132.907 21.2169Z" fill="#1B2149"/>
<path d="M53.5073 299.123C53.2606 299.214 53.129 299.146 53.1332 298.891C53.2565 298.971 53.3839 299.047 53.5073 299.123Z" fill="#B3A1E6"/>
<path d="M199.977 298.804C200.137 299.032 200.133 299.161 199.78 299.077C199.776 298.94 199.837 298.849 199.977 298.804Z" fill="#B3A1E6"/>
<path d="M125.153 79.8707C125.153 74.2987 125.153 68.723 125.153 63.151C125.153 62.6455 125.161 62.1362 125.194 61.6307C125.215 61.3114 125.318 60.9542 125.753 61.034C125.93 61.0644 126.144 61.3798 126.173 61.5889C126.239 62.0868 126.214 62.5999 126.214 63.1054C126.202 74.0631 126.226 85.0169 126.128 95.9746C126.111 97.6013 126.666 98.2247 128.335 98.6808C135.818 100.726 143.247 102.945 150.708 105.047C151.946 105.397 152.612 105.879 152.822 107.176C153.414 110.866 154.207 114.534 154.902 118.213C154.988 118.665 155.371 119.357 154.598 119.486C153.8 119.619 153.956 118.848 153.866 118.395C153.171 114.845 152.415 111.303 151.843 107.734C151.658 106.586 151.107 106.149 150.014 105.838C142.227 103.618 134.469 101.318 126.67 99.1406C125.42 98.791 125.12 98.3007 125.133 97.1604C125.203 91.3984 125.166 85.6365 125.166 79.8707C125.161 79.8707 125.157 79.8707 125.153 79.8707Z" fill="#1B2149"/>
<path d="M139.493 29.7307C139.024 29.6851 138.346 29.8789 138.26 29.324C138.157 28.6551 138.889 28.7919 139.3 28.8033C141.068 28.8527 140.813 28.0583 140.262 27.0245C139.748 26.0629 139.329 25.0557 138.876 24.0637C138.761 23.8091 138.782 23.562 139.098 23.4442C139.407 23.3264 139.653 23.4784 139.768 23.7178C140.426 25.1051 141.244 26.4582 141.647 27.9101C142.071 29.4342 140.681 29.5939 139.493 29.7307Z" fill="#1B2149"/>
<path d="M142.704 24.649C142.174 24.6376 141.804 24.4438 141.775 23.9079C141.75 23.4176 141.972 23.0451 142.527 23.0033C143.144 22.9539 143.559 23.2389 143.567 23.8471C143.58 24.3564 143.259 24.6224 142.704 24.649Z" fill="#1B2149"/>
<path d="M134.482 24.649C133.951 24.6376 133.581 24.4438 133.552 23.9079C133.528 23.4176 133.75 23.0451 134.305 23.0033C134.921 22.9539 135.337 23.2389 135.345 23.8471C135.357 24.3564 135.037 24.6224 134.482 24.649Z" fill="#1B2149"/>
<path d="M187.06 99C183.417 102.28 179.746 105.496 176.227 109.019C176.198 108.734 176.153 108.608 176.177 108.494C173.114 106.993 171.881 108.133 169.825 105.853C175.17 100.532 180.675 97.2517 185.037 92.9302C190.793 87.229 192.918 90.7143 196.548 91.0298C193.707 93.8804 190.196 96.1722 187.06 99Z" fill="#B3A1E6"/>
<path d="M194.003 89.1826C191.245 88.6581 189.136 87.1834 186.788 89.3194C180.066 95.07 173.361 100.536 166.532 106.233C167.721 105.883 168.572 106.088 169.805 105.929C175.791 100.969 181.682 95.91 187.631 90.9157C189.987 89.308 191.792 90.3646 194.394 90.8549C194.805 90.9347 196.376 91.3376 196.544 91.0298C197.371 89.5095 194.953 89.3612 194.003 89.1826Z" fill="#7B57DF"/>
<path d="M176.403 108.893C181.337 103.952 172.465 105.454 168.403 105.484C168.855 104.002 169.768 103.496 171.059 102.432C167.396 101.987 164.07 103.192 160.781 104.333C159.404 104.811 157.089 104.823 157.582 106.784C158.174 109.422 158.664 112.082 159.256 114.72C159.86 117.388 159.889 117.373 162.791 116.351C165.813 115.602 168.839 114.481 171.799 113.454C172.703 113.074 175.778 109.517 176.403 108.893Z" fill="#F6C0B9"/>
<path d="M125.807 26.3936C125.774 26.3936 125.741 26.3898 125.708 26.3822C125.646 26.367 124.162 26.0135 123.661 25.0139C123.414 24.516 123.447 23.9611 123.767 23.3719C124.084 22.7866 124.549 22.4027 125.153 22.2355C126.345 21.901 127.628 22.5662 127.681 22.5966C127.879 22.6992 127.949 22.931 127.833 23.1135C127.722 23.2959 127.472 23.3605 127.274 23.2541C127.262 23.2503 126.242 22.722 125.387 22.9615C125.005 23.0679 124.717 23.3149 124.503 23.7102C124.298 24.0903 124.269 24.4096 124.409 24.6908C124.684 25.2457 125.585 25.565 125.909 25.641C126.127 25.6942 126.263 25.8995 126.205 26.1009C126.16 26.2757 125.992 26.3936 125.807 26.3936Z" fill="#1B2149"/>
<path d="M119.006 126.187C109.764 126.187 102.068 124.982 101.974 124.967C101.694 124.921 101.505 124.678 101.554 124.419C101.604 124.161 101.867 123.99 102.146 124.032C102.266 124.051 114.147 125.909 126.065 124.978C138.407 124.043 151.518 120.284 151.649 120.246C151.921 120.166 152.208 120.307 152.295 120.558C152.381 120.809 152.229 121.075 151.958 121.154C151.826 121.189 138.604 124.978 126.152 125.924C123.738 126.111 121.321 126.187 119.006 126.187Z" fill="#1B2149"/>
</g>
<defs>
<clipPath id="clip0_5_2285">
<rect width="290" height="298.286" fill="white" transform="translate(0 0.878906)"/>
</clipPath>
</defs>
</svg>
