<svg width="72" height="72" viewBox="0 0 72 72" fill="none" xmlns="http://www.w3.org/2000/svg">
<path d="M45.9177 2.60235C42.9223 2.86311 41.5728 5.96392 43.4625 8.30268C44.7217 9.86119 46.3905 11.8073 48.5764 14.1619C44.6608 18.4987 42.2019 21.6648 40.8214 23.5686C39.859 24.8959 39.7228 26.5633 40.7683 27.8265C41.1886 28.3342 41.7327 28.9356 42.4356 29.6343C43.1034 30.298 43.6773 30.8161 44.1631 31.2202C45.432 32.2758 47.0988 32.1186 48.42 31.1296C50.3005 29.7219 53.4285 27.2416 57.7453 23.3577C60.1882 25.6399 62.1862 27.3573 63.7708 28.6363C66.0858 30.5049 69.1246 29.169 69.3867 26.2056C69.9144 20.2357 69.7882 13.5029 69.4971 7.96314C69.3418 5.00796 66.9903 2.65634 64.0351 2.50094C58.5336 2.21163 51.8551 2.08551 45.9177 2.60235Z" fill="#7B57DF"/>
<path d="M26.0811 2.60162C29.0766 2.86238 30.426 5.96319 28.5363 8.30196C27.2772 9.86046 25.6083 11.8066 23.4225 14.1612C27.3379 18.498 29.7969 21.664 31.1773 23.5678C32.1399 24.8953 32.2759 26.5627 31.2304 27.8257C30.8101 28.3335 30.2661 28.9348 29.5632 29.6335C28.8954 30.2973 28.3216 30.8154 27.8356 31.2196C26.5668 32.275 24.9001 32.1178 23.5788 31.1289C21.6982 29.7211 18.5703 27.2409 14.2535 23.3571C11.8105 25.6392 9.81265 27.3565 8.22805 28.6356C5.91308 30.5041 2.87414 29.1682 2.6122 26.2048C2.0845 20.235 2.21053 13.5022 2.50171 7.96241C2.65703 5.00723 5.00849 2.65562 7.96367 2.50022C13.4652 2.2109 20.1436 2.08478 26.0811 2.60162Z" fill="#B3A1E6"/>
<path fill-rule="evenodd" clip-rule="evenodd" d="M26.0805 69.3976C29.076 69.1369 30.4254 66.0361 28.5357 63.6973C27.2769 62.1393 25.6086 60.1938 23.4237 57.8401C27.3385 53.5041 29.797 50.3385 31.1773 48.4349C32.1399 47.1075 32.2759 45.4401 31.2304 44.1769C30.8101 43.6693 30.2661 43.068 29.5632 42.3693C28.8954 41.7055 28.3216 41.1873 27.8356 40.7832C26.5668 39.7278 24.9001 39.8848 23.5788 40.8739C21.6985 42.2814 18.571 44.7612 14.2552 48.6442C11.8115 46.3612 9.81301 44.6433 8.22804 43.3639C5.91307 41.4954 2.87413 42.8313 2.61219 45.7947C2.0845 51.7645 2.21053 58.4971 2.5017 64.0368C2.65702 66.9921 5.0085 69.3436 7.96366 69.499C13.4651 69.7884 20.1433 69.9145 26.0805 69.3976Z" fill="#7B57DF"/>
<path d="M45.919 69.3969C42.9237 69.1362 41.5741 66.0354 43.4638 63.6966C44.7226 62.1386 46.3909 60.1931 48.5758 57.8394C44.661 53.5034 42.2025 50.3378 40.8222 48.4343C39.8598 47.1068 39.7236 45.4394 40.7691 44.1764C41.1894 43.6686 41.7334 43.0673 42.4363 42.3686C43.1041 41.7048 43.678 41.1866 44.1639 40.7825C45.4327 39.7271 47.0995 39.8841 48.4207 40.8732C50.3011 42.2807 53.4285 44.7606 57.7444 48.6435C60.1881 46.3605 62.1865 44.6426 63.7716 43.3632C66.0865 41.4947 69.1254 42.8306 69.3874 45.7941C69.915 51.7638 69.789 58.4966 69.4978 64.0362C69.3426 66.9914 66.991 69.3429 64.0359 69.4983C58.5345 69.7877 51.8563 69.9138 45.919 69.3969Z" fill="#B3A1E6"/>
</svg>
