<svg width="72" height="72" viewBox="0 0 72 72" fill="none" xmlns="http://www.w3.org/2000/svg">
<path d="M3.48566 33.061C3.48566 16.4249 16.9719 2.9386 33.6081 2.9386C49.7622 2.9386 62.9464 15.6547 63.6968 31.6231C60.1174 29.2803 55.8381 27.9182 51.2408 27.9182C38.6623 27.9182 28.4653 38.1151 28.4653 50.6937C28.4653 55.2911 29.8274 59.5703 32.1701 63.1497C27.0247 62.9078 22.2155 61.3745 18.0613 58.8664C15.0023 60.0975 11.491 61.3769 8.27843 62.2688C5.84373 62.9449 3.64964 60.852 4.2663 58.3824C5.09875 55.0485 6.3799 51.445 7.65277 48.3569C5.00487 43.8731 3.48566 38.6434 3.48566 33.061Z" fill="#B3A1E6"/>
<path d="M51.2404 32.3264C61.3843 32.3264 69.6077 40.5497 69.6077 50.6938C69.6077 54.0744 68.6936 57.2437 67.099 59.9656C67.6883 61.2454 68.2672 62.6953 68.7337 64.244C69.4781 66.7146 67.2303 68.8482 64.8033 68.0547C63.332 67.5737 61.9372 67.007 60.6862 66.4491C57.9257 68.1076 54.6933 69.0611 51.2404 69.0611C41.0963 69.0611 32.873 60.8378 32.873 50.6938C32.873 40.5497 41.0963 32.3264 51.2404 32.3264Z" fill="#7B57DF"/>
</svg>
