<svg width="72" height="72" viewBox="0 0 72 72" fill="none" xmlns="http://www.w3.org/2000/svg">
<path d="M26.9998 2.24988C19.276 2.24988 14.1192 2.4663 10.763 2.70877C6.33355 3.02881 3.02826 6.33438 2.70838 10.7638C2.46604 14.1198 2.24976 19.2762 2.24976 26.9999C2.24976 34.7226 2.466 39.8789 2.70831 43.2351C3.02817 47.6657 6.33465 50.9718 10.7651 51.2916C13.0408 51.4557 16.1432 51.608 20.3107 51.689C20.3918 55.8567 20.5441 58.9593 20.7083 61.2351C21.0281 65.6657 24.3347 68.9718 28.7651 69.2916C32.1212 69.5337 37.2773 69.7499 44.9998 69.7499C52.7219 69.7499 57.8778 69.5337 61.2341 69.2916C65.6646 68.9718 68.9713 65.6655 69.2912 61.2348C69.5335 57.8786 69.7497 52.7222 69.7497 44.9999C69.7497 37.2767 69.5334 32.1203 69.291 28.7642C68.9712 24.3345 65.6659 21.0288 61.236 20.7087C58.9601 20.5443 55.8574 20.3919 51.6889 20.3109C51.6077 16.1427 51.4554 13.04 51.291 10.7641C50.9712 6.33457 47.6659 3.02878 43.2361 2.70876C39.88 2.46628 34.7234 2.24988 26.9998 2.24988Z" fill="#B3A1E6"/>
<path d="M45.0002 20.2499C37.2764 20.2499 32.1197 20.4663 28.7634 20.7087C24.3339 21.0288 21.0287 24.3344 20.7089 28.7637C20.4665 32.1198 20.2502 37.2762 20.2502 44.9999C20.2502 46.6097 20.2596 48.1077 20.2766 49.5011L20.3036 51.6966L22.499 51.7235C23.8923 51.7404 25.3904 51.7499 27.0002 51.7499C34.7223 51.7499 39.8783 51.5337 43.2345 51.2916C47.6651 50.9718 50.9717 47.6655 51.2916 43.2348C51.5339 39.8786 51.7502 34.7222 51.7502 26.9999C51.7502 25.3901 51.7407 23.892 51.7237 22.4987L51.6968 20.3033L49.5014 20.2763C48.108 20.2593 46.61 20.2499 45.0002 20.2499Z" fill="#7B57DF"/>
</svg>
