<svg width="72" height="72" viewBox="0 0 72 72" fill="none" xmlns="http://www.w3.org/2000/svg">
<g clip-path="url(#clip0_5_1952)">
<path d="M21.7626 52.7425C21.6801 51.9808 21.9909 51.2294 22.5875 50.7485C23.1837 50.2678 23.9826 50.1231 24.7092 50.3649L24.7074 50.3644L24.7295 50.3714C24.7527 50.3788 24.7931 50.3913 24.8499 50.4083C24.9638 50.4422 25.1441 50.4938 25.3878 50.5574C25.8756 50.6846 26.6172 50.8597 27.5895 51.0365C29.5346 51.3901 32.3993 51.7502 35.9996 51.7502C39.5999 51.7502 42.4646 51.3901 44.4096 51.0365C45.3819 50.8597 46.1235 50.6846 46.6113 50.5574C46.8552 50.4938 47.0355 50.4422 47.1492 50.4083C47.2062 50.3913 47.2464 50.3788 47.2697 50.3714L47.2905 50.3648L47.2928 50.3641C48.0185 50.1239 48.8165 50.2687 49.4117 50.7485C50.0082 51.2294 50.319 51.9808 50.2365 52.7425L49.1618 62.6632C48.8099 65.9111 46.4816 68.8553 42.9183 69.323C41.1327 69.5575 38.81 69.7502 35.9996 69.7502C33.0441 69.7502 30.7515 69.5371 29.067 69.2822C25.9659 68.813 23.9253 66.3497 23.4066 63.5867C22.9011 60.8942 22.2053 56.8274 21.7626 52.7425Z" fill="#7B57DF"/>
<path fill-rule="evenodd" clip-rule="evenodd" d="M8.24969 29.9999C8.24969 14.674 20.6737 2.24988 35.9997 2.24988C51.3256 2.24988 63.7497 14.674 63.7497 29.9999C63.7497 38.8277 59.6254 46.6926 53.2074 51.7718C52.929 52.7661 52.6567 53.6814 52.4193 54.4542C51.7126 56.7548 49.7563 58.5171 47.2407 58.7798C45.0612 59.0073 41.4586 59.2499 35.9997 59.2499C30.5407 59.2499 26.9382 59.0073 24.7587 58.7798C22.243 58.5171 20.2867 56.7548 19.5801 54.4542C19.3426 53.6814 19.0704 52.7661 18.792 51.7718C12.3739 46.6926 8.24969 38.8277 8.24969 29.9999Z" fill="#B3A1E6"/>
<path d="M35.9996 17.25C42.2128 17.25 47.2496 22.2868 47.2496 28.5C47.2496 30.5711 48.9286 32.25 50.9996 32.25C53.0707 32.25 54.7496 30.5711 54.7496 28.5C54.7496 18.1446 46.355 9.75 35.9996 9.75C33.9286 9.75 32.2496 11.4289 32.2496 13.5C32.2496 15.5711 33.9286 17.25 35.9996 17.25Z" fill="#7B57DF"/>
</g>
<defs>
<clipPath id="clip0_5_1952">
<rect width="72" height="72" fill="white"/>
</clipPath>
</defs>
</svg>
