<svg width="386" height="416" viewBox="0 0 386 416" fill="none" xmlns="http://www.w3.org/2000/svg">
<path d="M214.088 377.677C218.274 377.699 222.246 377.217 226.624 377.217C226.46 378.192 223.335 393.33 223.33 393.593C220.255 393.593 217.174 393.587 214.098 393.587C213.841 392.547 214 387.578 214.022 386.138C214.06 383.32 214.071 380.501 214.088 377.677Z" fill="#F6C0B9"/>
<path d="M155.487 376.67C160.28 376.292 164.921 376.292 169.714 376.67C168.631 382.056 167.224 388.257 165.867 393.571C162.256 393.565 158.639 393.56 155.027 393.549C155.027 389.948 155.426 386.418 155.41 382.745C155.399 380.452 155.509 378.389 155.487 376.67Z" fill="#F6C0B9"/>
<path d="M293.822 137.943C291.759 125.924 265.778 103.172 257.947 94.0869C246.926 84.5089 233.826 76.7316 219.478 73.4478C216.227 80.5738 206.378 79.4791 202.509 74.0224C168.116 78.6527 134.583 103.774 123.42 137.04C119.135 151.051 128.476 166.321 143.289 166.469C154.688 167.334 165.025 161.237 173.818 154.642C174.316 167.104 172.171 179.774 172.062 192.34C171.865 195.619 169.402 210.188 171.98 210.325C202 211.929 231.549 211.381 261.082 210.342C261.345 210.331 261.52 210.139 261.695 209.882C262.089 209.291 262.286 208.585 262.281 207.873C262.264 193.408 261.498 178.898 260.929 164.285C280.886 177.065 300.98 159.901 293.822 137.943Z" fill="white"/>
<path d="M215.39 209.969L215.401 209.975C200.955 210.254 186.349 209.346 171.98 210.325C165.118 266.047 155.716 321.441 149.008 377.201C158.469 377.617 167.531 377.524 176.992 377.212C193.195 332.972 204.703 287.338 215.959 241.615C215.839 286.341 212.446 331.029 211.253 375.756C210.722 378.011 212.638 377.452 214.088 377.682C221.913 377.589 230.105 377.803 237.837 377.458C253.536 323.52 260.65 266.518 261.099 210.287C260.929 210.188 230.165 210.396 215.39 209.969Z" fill="#B3A1E6"/>
<path opacity="0.5" d="M85.766 68.7028C74.7452 68.7083 63.7243 68.7138 52.7034 68.6864C51.9373 68.6864 50.8702 69.1133 50.4653 68.1993C49.9454 67.0281 51.2205 66.7654 51.8552 66.2071C56.4354 62.1844 61.1907 58.3641 66.5862 55.5017C73.7437 51.7033 82.6469 51.4461 88.9672 57.981C90.5049 59.5737 91.8893 59.6284 93.8155 58.7855C100.3 55.9505 106.91 55.2335 113.575 58.2382C116.957 59.7598 119.825 61.8505 121.598 65.2712C122.96 67.8983 122.615 68.681 119.649 68.6864C110.358 68.7083 101.066 68.6919 91.7744 68.6919C89.7716 68.6974 87.7688 68.6974 85.766 68.7028Z" fill="#B3A1E6"/>
<path opacity="0.5" d="M323.444 192.182C314.974 192.182 306.508 192.187 298.037 192.176C297.151 192.176 295.996 192.439 295.597 191.427C295.121 190.222 296.434 189.971 297.118 189.527C300.768 187.141 304.128 184.246 308.144 182.511C313.113 180.365 318.12 180.103 322.925 183.255C324.128 184.043 324.884 185.193 325.595 186.293C326.564 187.798 327.165 187.787 328.501 186.648C331.817 183.824 335.489 181.843 340.129 182.232C343.757 182.533 350.236 187.398 351.254 190.896C351.763 192.647 350.406 192.154 349.672 192.16C343.204 192.204 336.742 192.193 330.274 192.198C327.997 192.198 325.721 192.198 323.444 192.198C323.444 192.193 323.444 192.187 323.444 192.182Z" fill="#B3A1E6"/>
<path d="M229.387 21.5791C227.237 21.7542 225.201 21.4915 223.467 19.8441C216.512 22.9856 210.158 20.3859 203.581 17.4414C202.114 21.1193 199.346 23.1882 195.882 24.4415C195.707 27.9443 196.188 31.2665 196.522 34.6051L196.533 34.5942C194.891 33.8662 193.244 33.1383 191.602 32.4104C191.646 30.8341 190.349 30.3361 189.353 29.5808C184.625 26.368 183.591 18.4539 188.762 15.2029C186.294 10.8955 188.587 7.56786 194.694 6.77973C197.189 -1.44638 208.276 -1.84592 213.776 3.74214C217.064 1.41059 220.402 1.37228 223.762 3.40828C226.619 3.95559 229.552 3.7093 231.959 5.77815C236.961 9.51629 235.664 19.6525 229.387 21.5791Z" fill="#1B2149"/>
<path d="M280.295 90.9344C278.139 90.9125 275.983 90.9235 273.827 90.9235C272.776 90.9235 271.72 90.9125 270.669 90.9509C269.34 91.0001 268.004 90.9563 266.675 90.8633C266.188 90.8304 265.744 90.8469 265.329 90.9016C264.404 90.8907 263.479 90.8797 262.554 90.8523C261.153 90.814 260.048 91.0932 259.227 91.9141C258.702 92.4396 258.39 93.151 258.286 93.8899C258.259 94.0979 258.22 94.3059 258.166 94.5084C255.96 102.866 253.744 111.223 251.533 119.581C250.882 122.044 250.182 124.496 249.591 126.969C248.918 129.816 249.552 130.565 252.54 130.615C253.361 130.631 254.182 130.571 255.003 130.587C255.309 130.593 255.659 130.598 256.042 130.604C256.152 130.609 256.261 130.615 256.376 130.615C256.486 130.615 256.59 130.609 256.699 130.609C258.472 130.626 260.792 130.631 263.041 130.626C267.112 130.636 272.218 130.609 274.062 130.549C274.297 130.543 280.64 105.088 280.678 105.077C281.597 101.689 282.599 98.3177 283.409 94.9025C283.912 92.7515 282.5 90.9509 280.295 90.9344Z" fill="#7B57DF"/>
<path d="M126.506 412.836C126.44 410.587 127.633 409.076 129.395 407.889C131.606 406.4 134.047 405.415 136.531 404.506C141.587 402.656 146.78 401.321 152.045 400.232C152.674 400.1 153.303 400.04 153.845 399.657C157.473 399.706 161.106 399.756 164.734 399.799C164.729 404.32 164.253 414.051 164.242 414.434C158.047 414.484 151.842 414.38 145.648 414.391C139.273 414.402 132.892 414.347 126.517 414.319C126.512 413.827 126.512 413.329 126.506 412.836Z" fill="#5E3AC2"/>
<path d="M250.691 414.33C241.481 414.347 232.277 414.374 223.067 414.385C219.511 414.391 215.959 414.352 212.402 414.33C212.369 413.947 213.393 404.282 213.535 399.788C216.621 399.734 219.702 399.684 222.788 399.63C227.888 401.157 233.142 402.147 238.138 404.052C240.753 405.048 243.364 406.05 245.892 407.27C248.507 408.529 250.308 410.368 250.696 413.356C250.696 413.685 250.691 414.008 250.691 414.33Z" fill="#5E3AC2"/>
<path d="M155.06 393.095C158.365 393.15 162.628 393.089 165.96 393.089C166.201 393.089 166.371 393.314 166.311 393.549L164.729 399.805C161.101 399.756 157.468 399.706 153.84 399.663C154.321 397.742 154.31 395.459 154.359 393.763C154.376 393.379 154.688 393.089 155.06 393.095Z" fill="white"/>
<path d="M214.038 393.089C216.933 393.089 220.386 393.084 223.341 393.089C223.664 393.089 223.904 393.905 223.899 394.222C223.872 396.056 223.264 397.84 222.794 399.635C219.707 399.69 216.626 399.739 213.54 399.794C213.524 398.174 213.507 396.559 213.491 394.939C213.485 394.392 213.414 393.352 214.038 393.089Z" fill="white"/>
<path d="M189.283 106.232C191.816 105.422 194.213 104.179 196.982 104.092C198.361 104.048 199.63 104.847 200.183 106.111C202.678 111.875 204.555 117.972 206.695 123.932C207.395 125.875 206.788 128.064 205.141 129.307C204.243 129.985 203.187 130.467 202.12 130.91C199.877 131.841 197.54 132.541 195.045 132.607C193.502 132.645 192.177 133.302 191.067 134.462C187.767 137.91 184.62 141.506 181.217 144.856C180.051 146.005 179.115 147.138 177.704 148.731C172.888 142.075 168.308 135.743 163.733 129.421C164.111 128.009 165.326 127.676 166.332 127.139C170.179 125.103 174.119 123.253 177.95 121.173C180.226 119.937 180.85 118.103 181.195 115.936C182.059 110.523 180.976 105.384 178.853 100.408C178.47 99.5054 178.202 98.5476 177.901 97.6774C179.958 95.3951 182.683 95.417 185.359 97.5789C187.652 99.4342 188.199 102.111 188.85 104.743C188.96 105.17 188.79 105.657 189.283 106.232Z" fill="#F6C0B9"/>
<path d="M223.533 77.9521C219.631 87.8694 205.754 85.8061 200.079 78.4009C199.794 78.1437 199.351 78.4611 199.521 78.806C203.472 86.5449 220.452 89.2104 224.014 79.2164C224.189 78.7074 224.304 78.1273 223.533 77.9521Z" fill="#1B2149"/>
<path d="M230.028 45.442C228.753 37.5717 229.585 29.5317 229.388 21.5847C227.237 21.7598 225.201 21.4971 223.467 19.8497C216.512 22.9913 210.159 20.3916 203.581 17.447C202.114 21.125 199.346 23.1938 195.882 24.4471C195.707 27.9499 196.188 31.2776 196.522 34.6107C196.905 34.8242 193.25 33.1439 191.603 32.416C184.374 33.8773 189.069 44.3584 195.198 43.4827C196.112 48.5398 198.793 52.7268 202.01 56.5142C202.279 59.5901 202.541 62.5182 202.547 65.7528C202.552 68.5113 202.519 71.2697 202.503 74.0282C204.96 77.531 208.375 78.7296 212.544 78.4505C215.97 78.2206 218.148 76.4911 219.467 73.4535C219.445 69.2611 219.417 65.0687 219.395 60.8763L219.499 60.2742C226.301 59.4149 231.297 52.2506 230.028 45.442Z" fill="#F6C0B9"/>
<path d="M211.947 63.5701C214.42 62.8641 217.025 62.3332 219.307 61.0689C219.307 61.0525 219.307 61.0306 219.307 61.0142L219.4 60.4669C218.951 60.4559 218.376 60.4669 217.933 60.4997C214.71 60.7296 210.108 59.9196 207.908 59.2518C204.937 58.3488 202.857 57.4238 201.949 56.6521C201.938 56.6521 201.927 56.6521 201.922 56.6521C202.19 59.728 202.452 62.6561 202.458 65.8907C205.621 65.13 208.817 64.4623 211.947 63.5701Z" fill="#A9767D" fill-opacity="0.5"/>
<path d="M207.8 34.1235C207.182 34.7857 206.104 34.7474 205.496 34.0742C204.49 32.9632 204.396 31.6387 205.288 30.3963C206.137 29.2196 207.734 29.3454 208.353 30.6371C208.944 31.874 208.725 33.1328 207.8 34.1235Z" fill="#1B2149"/>
<path d="M222.788 29.7233C223.642 29.4825 224.507 30.0134 224.791 30.8015C225.136 31.7374 224.977 32.6514 224.605 33.5435C224.096 34.7695 222.783 34.9063 221.853 33.8938C221.081 33.0619 220.961 32.0713 221.398 31.1189C221.699 30.4512 222.132 29.9148 222.788 29.7233Z" fill="#1B2149"/>
<path d="M201.376 27.7365C200.954 28.136 200.281 27.7365 200.413 27.1673C200.675 26.0453 201.595 25.3338 202.667 24.8303C203.991 24.2118 205.42 23.7411 206.853 24.6551C207.253 24.9124 207.193 25.5089 206.755 25.6896C205.732 26.1055 204.599 25.7935 203.63 26.1219C202.667 26.4558 202.049 27.1016 201.376 27.7365Z" fill="#1B2149"/>
<path d="M222.246 25.6619C221.694 25.7659 221.267 25.1091 221.617 24.6658C221.967 24.2225 222.542 24.1787 223.084 24.1458C224.287 24.0637 225.344 24.3045 226.159 25.2404C226.526 25.6619 226.175 26.3241 225.617 26.2858C224.43 26.1982 223.368 25.4539 222.246 25.6619Z" fill="#1B2149"/>
<path d="M216.572 41.2714C215.948 41.2057 215.045 41.4848 214.93 40.6857C214.794 39.7225 215.768 39.9195 216.315 39.9359C218.668 40.0071 218.329 38.8632 217.595 37.3745C216.911 35.9898 216.353 34.5394 215.751 33.1109C215.598 32.7442 215.625 32.3885 216.047 32.2188C216.457 32.0491 216.785 32.2681 216.939 32.6129C217.814 34.6106 218.903 36.559 219.439 38.6497C220.003 40.8445 218.148 41.0743 216.572 41.2714Z" fill="#1B2149"/>
<path d="M194.672 40.7406C194.645 40.7625 194.612 40.7789 194.574 40.7899C194.503 40.8118 192.861 41.3372 191.515 40.4232C190.842 39.9634 190.377 39.2574 190.13 38.3215C189.884 37.3911 189.955 36.6139 190.344 36.0118C191.11 34.8242 192.85 34.8132 192.927 34.8132C193.195 34.8132 193.468 35.0595 193.529 35.3551C193.594 35.6561 193.425 35.8969 193.157 35.8969C193.14 35.8969 191.756 35.9079 191.208 36.7617C190.968 37.1448 190.929 37.6319 191.094 38.2668C191.252 38.8688 191.515 39.2848 191.892 39.5475C192.637 40.0565 193.731 39.8649 194.087 39.75C194.328 39.6734 194.634 39.843 194.771 40.1276C194.88 40.3739 194.836 40.6202 194.672 40.7406Z" fill="#1B2149"/>
<path d="M214.038 48.8299C216.528 48.8409 218.772 48.2826 221.086 47.3905C221.568 47.2044 222.279 46.9034 222.022 46.2795C221.809 45.7595 221.245 46.2521 220.845 46.367C216.046 47.7463 211.275 48.7533 206.755 45.5023C206.591 45.3819 206.153 45.3654 206.065 45.4749C205.671 45.9784 206.136 46.2849 206.448 46.5641C208.577 48.4687 211.357 48.819 214.038 48.8299Z" fill="#1B2149"/>
<path d="M136.334 144.062C136.143 144.062 135.962 143.964 135.858 143.788C135.705 143.526 135.798 143.192 136.061 143.039L154.119 132.64C154.381 132.486 154.715 132.579 154.868 132.842C155.022 133.105 154.929 133.439 154.666 133.592L136.608 143.991C136.52 144.04 136.427 144.062 136.334 144.062Z" fill="#1B2149"/>
<path d="M260.552 156.103C260.273 156.103 260.032 155.889 260.004 155.605L258.363 136.996C258.335 136.695 258.56 136.427 258.861 136.405C259.162 136.378 259.43 136.602 259.452 136.903L261.093 155.512C261.121 155.813 260.896 156.081 260.595 156.103C260.584 156.103 260.568 156.103 260.552 156.103Z" fill="#1B2149"/>
<path d="M281.915 91.3284L284.968 94.2072L262.74 96.4457L252.343 131.474L251.905 132.048L249.498 129.492L260.004 93.1619L281.915 91.3284Z" fill="#7B57DF"/>
<path d="M282.484 93.1236C280.328 93.1018 278.172 93.1127 276.016 93.1127C274.965 93.1127 273.909 93.1018 272.858 93.1401C271.528 93.1893 270.193 93.1455 268.864 93.0525C268.377 93.0197 267.933 93.0361 267.517 93.0908C266.593 93.0799 265.668 93.0689 264.743 93.0416C263.342 93.0032 262.237 93.2824 261.416 94.1033C260.891 94.6288 260.579 95.3403 260.475 96.0791C260.447 96.2871 260.409 96.4951 260.354 96.6976C258.149 105.055 255.933 113.413 253.722 121.77C253.071 124.233 252.371 126.685 251.78 129.159C251.106 132.005 251.741 132.755 254.729 132.804C255.55 132.82 256.371 132.76 257.192 132.776C257.498 132.782 257.848 132.787 258.231 132.793C258.341 132.798 258.45 132.804 258.565 132.804C258.674 132.804 258.778 132.798 258.888 132.798C260.661 132.815 262.981 132.82 265.23 132.815C269.301 132.826 274.407 132.798 276.251 132.738C276.486 132.733 282.828 107.277 282.867 107.266C283.786 103.878 284.787 100.507 285.597 97.0917C286.101 94.9407 284.689 93.1401 282.484 93.1236Z" fill="#B3A1E6"/>
<path d="M268.76 132.568C270.402 132.568 271.354 132.568 272.59 132.568C273.685 132.568 274.965 132.727 275.89 131.66C273.209 130.22 270.122 130.231 267.25 129.246C262.357 128.146 268.765 113.96 269.843 110.315C271.759 103.867 278.818 107.797 283.513 108.503C288.498 109.247 285.975 119.646 285.647 123.773C284.908 131.288 281.357 132.64 276.99 137.593C274.473 140.543 271.474 143.077 269.077 146.158C268.919 146.366 268.683 146.541 268.191 146.404C268.306 141.982 268.12 137.045 268.76 132.568Z" fill="#F6C0B9"/>
<path d="M226.635 210.287C226.35 210.281 226.082 210.539 226.077 210.862C226.077 210.982 225.776 222.777 218.044 225.957L220.052 210.955C220.096 210.637 219.888 210.336 219.587 210.292C219.286 210.243 219.012 210.468 218.969 210.79L215.685 235.343C215.642 235.66 215.849 235.961 216.15 236.005C216.178 236.011 216.205 236.011 216.227 236.011C216.495 236.011 216.73 235.803 216.769 235.507L217.874 227.237C217.929 227.237 217.989 227.226 218.044 227.204C226.854 223.981 227.16 211.409 227.171 210.878C227.177 210.561 226.936 210.292 226.635 210.287Z" fill="#7B57DF"/>
<path d="M122.659 414.029C169.233 414.057 215.8 414.09 262.374 414.117C263.556 414.117 268.907 414.139 272.683 414.139C294.375 414.133 316.072 414.128 337.763 414.123C352.801 414.117 367.844 414.117 382.881 414.112C383.609 414.112 384.342 414.112 385.07 414.15C385.529 414.177 386.022 414.27 385.995 414.889C385.967 415.463 385.497 415.6 385.037 415.639C384.583 415.671 384.129 415.628 383.674 415.628C279.491 415.666 175.307 415.71 71.1227 415.732C48.3367 415.737 25.5508 415.666 2.75935 415.633C2.48575 415.633 2.20667 415.666 1.93853 415.622C1.21074 415.502 -0.0478457 415.978 0.00140346 414.834C0.0451805 413.734 1.30924 414.155 2.03704 414.155C20.6313 414.128 39.2256 414.139 57.8199 414.139C58.3617 414.133 108.262 414.024 122.659 414.029Z" fill="#1B2149"/>
<path d="M215.948 243.459C215.74 287.573 212.435 331.642 211.253 375.756C210.722 378.011 212.637 377.452 214.087 377.682C216.014 377.66 217.967 377.655 219.926 377.655L222.794 377.764C222.794 377.764 224.49 330.411 223.888 314.824C223.253 298.514 217.289 253.432 215.948 243.459Z" fill="#7B57DF"/>
<path d="M156.838 377.431C156.855 377.338 165.769 323.597 167.525 305.519C169.681 283.315 171.635 219.257 171.876 211.141C165.025 266.583 155.684 321.709 149.002 377.195C151.645 377.31 154.245 377.387 156.838 377.431Z" fill="#7B57DF"/>
<path d="M57.5178 392.099C56.9049 388.793 56.2865 385.487 55.6901 382.176C55.5533 381.421 54.9295 380.299 55.9637 380.036C57.0526 379.762 56.894 381.054 57.0691 381.76C57.8735 385.022 58.645 388.295 59.4275 391.568C59.9255 394.233 60.429 396.899 60.9214 399.564C61.7313 403.948 62.5795 408.326 63.3292 412.721C63.8162 415.567 66.016 414.04 67.4497 414.391C68.67 414.686 69.0311 413.893 68.9491 412.793C68.4237 405.716 68.3198 398.612 67.3457 391.573C67.384 385.64 66.4319 379.773 66.1309 373.868C66.1145 373.594 66.0434 373.32 66.0598 373.052C66.12 372.237 65.4633 370.923 66.7055 370.814C67.6905 370.726 67.5099 372.072 67.5756 372.822C68.0352 377.994 68.4347 383.172 68.8615 388.344C68.9217 389.067 69.0476 389.784 69.1461 390.5C69.6714 398.327 70.1967 406.154 70.722 413.975C70.7166 414.341 70.8917 414.44 71.22 414.309C72.0955 414.276 72.9711 414.248 73.8466 414.216C75.7181 414.533 77.5896 414.429 79.4665 414.309C93.8637 414.303 108.261 414.287 122.658 414.298C169.231 414.325 215.799 414.358 262.372 414.385C263.554 414.385 264.731 414.298 265.913 414.248C266.384 414.369 266.384 414.183 266.176 413.854C265.158 409.886 264.118 405.924 263.133 401.945C262.914 401.058 262.011 399.728 263.341 399.361C264.408 399.066 264.364 400.609 264.594 401.397C265.508 404.506 266.345 407.637 267.724 410.713C268.2 406.296 268.665 401.885 269.174 397.473C269.262 396.734 268.939 395.415 270.055 395.525C271.374 395.651 270.756 396.975 270.679 397.769C270.263 402.032 269.754 406.285 269.306 410.549C268.895 414.402 268.912 414.407 272.687 414.407C294.379 414.402 316.076 414.396 337.768 414.391C352.805 414.385 367.848 414.385 382.885 414.38C383.613 414.38 384.346 414.38 385.074 414.418C385.534 414.445 386.026 414.538 385.999 415.157C385.972 415.732 385.501 415.868 385.041 415.907C384.587 415.94 384.133 415.896 383.679 415.896C279.495 415.934 175.311 415.978 71.127 416C48.341 416.005 25.5551 415.934 2.76363 415.901C2.49003 415.901 2.21095 415.934 1.94281 415.89C1.21502 415.77 -0.0435714 416.246 0.00567782 415.102C0.0494549 414.002 1.31352 414.424 2.04131 414.424C20.6356 414.396 39.2299 414.407 57.8242 414.407C58.3714 414.407 58.9241 414.347 59.4659 414.418C61.5507 414.708 62.1198 414.079 61.6547 411.873C60.2429 405.278 59.3838 398.584 57.5178 392.099Z" fill="#1B2149"/>
<path d="M79.226 359.611C70.4979 361.707 62.0873 359.304 56.4729 351.822C51.0117 344.543 48.5985 336.076 47.1319 327.204C46.3111 322.24 45.5286 317.21 46.2509 312.312C47.5424 303.549 51.1375 295.712 59.2308 291.131C62.722 289.155 66.7824 289.423 70.3721 291.722C78.7335 297.08 82.865 304.841 83.352 314.665C83.3629 314.912 83.456 315.158 83.3575 314.704C85.4095 312.93 87.6367 310.834 90.0389 308.962C93.0322 306.636 96.0802 304.354 100.184 304.376C104.113 304.398 106.888 307.348 107.988 310.128C110.767 317.145 109.881 324.024 107.276 330.811C104.879 337.056 102.023 343.06 98.1048 348.555C94.548 353.535 89.2947 355.955 84.0907 358.456C83.1276 358.916 82.1481 359.901 80.8403 359.589C78.7061 359.747 80.895 359.747 79.226 359.611Z" fill="#D6CDF1"/>
<path d="M77.3978 368.33C77.8301 383.288 77.863 398.246 77.4471 413.198C77.4361 413.559 77.6933 413.877 78.0545 413.943C78.06 413.943 78.0654 413.943 78.0709 413.943C78.5141 414.025 78.9246 413.685 78.9355 413.236C79.3733 397.731 79.3459 382.22 78.8479 366.704C78.8479 366.693 78.8479 366.677 78.8479 366.666C78.3992 361.505 78.0545 356.332 77.4744 351.182C76.4183 341.922 75.1214 332.699 71.57 323.981C71.4606 323.713 71.2034 323.537 70.9188 323.521C70.8094 323.516 70.6999 323.51 70.5905 323.505C75.3622 337.505 76.5551 352.052 77.2227 366.677C77.2227 366.693 77.2227 366.715 77.2282 366.731C77.2884 367.268 77.3814 367.799 77.3978 368.33Z" fill="#2C2052"/>
</svg>
