<svg width="561" height="504" viewBox="0 0 561 504" fill="none" xmlns="http://www.w3.org/2000/svg">
<g clip-path="url(#clip0_5_1943)">
<path d="M199.274 321.61L199.306 321.602C199.306 321.61 199.306 321.61 199.306 321.618C199.29 321.61 199.282 321.61 199.274 321.61ZM409.221 255.563C392.697 218.279 381.82 195.219 366.752 184.09C340.861 164.972 311.062 173.094 280.241 173.094C260.43 173.094 207.886 168.381 192.157 184.09C182.389 193.845 174.855 195.871 153.62 245.353C148.657 256.922 119.802 316.041 126.094 323.895C126.809 324.437 116.467 317.259 117.222 317.746C151.41 339.141 206.242 388.238 240.917 402.438C319.564 434.641 376.747 414.392 410.793 400.082C439.177 377.462 430.455 303.474 409.221 255.563Z" fill="#F9F9FC"/>
<path d="M207.65 227.75H210.151C209.805 227.247 209.844 226.517 209.86 225.794C209.899 223.312 209.962 220.83 209.954 218.348C209.954 217.783 210.143 216.887 209.16 216.903C208.208 216.919 208.397 217.798 208.374 218.372C208.303 220.461 208.083 222.582 208.334 224.64C208.531 226.21 208.279 227.169 207.65 227.75Z" fill="#1B2149"/>
<path d="M423.786 310.188C417.203 309.269 411.328 311.484 405.949 314.799C374.53 334.167 343.441 354.062 312.855 374.734C312.305 376.172 311.086 376.195 309.835 376.18C299.737 383.406 271.645 404.212 255.923 402.114C250.339 401.368 245.699 399.758 238.833 395.729C237.89 395.171 237.19 394.268 236.277 393.655C215.491 379.659 198.102 367.893 175.696 353.426C150.341 338.495 127.093 319.276 100.408 307.046C45.906 299.499 40.275 379.494 64.6003 413.158C84.5293 422.803 100.778 445.768 123.011 446.876C127.816 447.119 137.332 446.868 137.167 446.876C134.816 446.962 165.842 445.399 173.219 447.818C173.541 446.954 174.328 446.994 175.043 446.899C181.343 446.617 212.408 482.016 221.901 499.154C229.931 511.54 310.567 474.122 311.55 473.8C328.459 468.271 346.083 465.852 361.309 456.301C362.324 455.665 388.049 446.09 392.831 443.137C411.077 431.866 431.643 424.295 450.659 415.522C463.494 385.888 468.064 313.526 423.786 310.188Z" fill="#B3A1E6"/>
<path opacity="0.5" d="M476.707 490.93C476.361 496.617 474.544 499.79 478.013 499.429C489.503 500.144 518.5 470.737 520.631 455.783C521.48 450.976 519.955 449.421 515.094 450.434C505.838 452.374 498.327 457.385 491.957 464.195C486.097 470.462 481.929 477.814 478.61 485.668C478.327 486.328 477.981 486.783 477.265 486.901L476.133 491.653C476.109 492.446 476.857 488.472 476.833 489.265C476.794 489.815 476.754 490.373 476.707 490.93Z" fill="#B3A1E6"/>
<path opacity="0.5" d="M494.576 317.807C494.025 318.577 493.262 318.569 492.468 318.364C483.306 316.047 474.497 312.992 467.136 306.701C464.635 304.565 462.795 302.028 461.127 299.263C460.419 298.085 460.805 297.676 461.969 297.284C466.483 295.768 470.958 296.27 475.362 297.582C483.337 299.962 489.361 304.753 492.814 312.45C493.577 314.147 494.009 315.992 494.591 317.768C494.583 317.775 494.576 317.807 494.576 317.807Z" fill="#B3A1E6"/>
<path opacity="0.5" d="M491.996 329.51C492.452 330.57 493.364 330.758 494.371 330.727C505.916 330.334 517.218 328.968 527.646 323.36C531.185 321.451 534.048 318.899 536.754 316.04C537.91 314.822 537.556 314.225 536.266 313.456C531.272 310.471 525.79 309.913 520.199 310.345C510.061 311.123 501.614 315.278 495.504 323.58C494.151 325.41 493.16 327.499 491.996 329.47V329.51Z" fill="#B3A1E6"/>
<path d="M394.427 446.931C404.439 446.648 414.584 445.022 424.061 449.955C437.415 441.936 445.209 429.636 450.659 415.53C449.613 415.435 448.638 415.482 447.671 416.095C428.693 424.012 413.42 430.531 397.982 439.901C394.239 442.179 389.882 443.239 386.13 445.501C382.544 447.661 379.398 448.447 377.039 450.018C380.625 449.641 388.946 447.724 392.532 447.339C393.169 447.206 393.798 447.064 394.427 446.931Z" fill="#7B57DF"/>
<path d="M123.011 446.884C115.146 444.527 101.352 437.749 93.1253 432.746C82.6968 426.023 77.4904 416.928 64.6003 413.165C75.9332 430.618 92.4253 447.473 113.062 452.578C115.595 449.201 118.89 447.787 123.011 446.884Z" fill="#7B57DF"/>
<path opacity="0.5" d="M474.985 496.358C475.402 496.381 475.81 496.271 476.18 495.863C474.348 492.808 474.733 489.375 474.607 486.061C474.12 473.164 471.823 460.825 462.732 450.418C462.252 449.868 461.528 449.546 460.813 449.664C458.862 450.002 458.493 452.931 458.123 454.981C455.323 470.549 458.508 484.034 471.996 493.797C472.649 494.268 473.325 494.653 473.632 495.329C473.892 495.879 474.371 496.326 474.985 496.358Z" fill="#B3A1E6"/>
<path opacity="0.5" d="M483.494 424.083C483.125 423.879 482.841 423.58 482.739 423.03C485.909 421.397 487.387 418.279 489.243 415.522C496.455 404.816 504.918 395.533 518.13 391.464C518.822 391.252 519.617 391.354 520.159 391.833C521.638 393.145 520.411 395.831 519.64 397.763C513.812 412.474 503.997 422.261 487.379 423.47C486.569 423.525 485.799 423.494 485.177 423.91C484.674 424.256 484.029 424.381 483.494 424.083Z" fill="#B3A1E6"/>
<path opacity="0.5" d="M487.246 387.953C487.568 387.898 487.859 387.741 488.064 387.364C486.129 385.369 485.822 382.691 485.138 380.193C482.496 370.493 478.571 361.524 469.833 355.224C469.377 354.895 468.764 354.769 468.245 354.989C466.821 355.586 467.065 357.879 467.144 359.497C467.765 371.813 472.562 381.489 484.532 386.524C485.114 386.767 485.696 386.94 486.05 387.396C486.333 387.78 486.774 388.032 487.246 387.953Z" fill="#B3A1E6"/>
<path d="M321.986 102.082C318.101 98.6808 318.054 99.7254 315.521 99.5841C310.936 99.3327 307.035 103.126 307.043 102.867C308.538 83.3964 290.795 87.6063 283.339 74.5683C281.963 71.9763 280.98 72.3612 279.006 73.7436C268.955 79.9877 255.601 83.1922 244.118 78.5189C245.306 97.0471 240.941 117.83 245.809 135.879C248.09 143.482 254.083 147.464 260.964 150.071C263.961 151.202 264.559 152.805 264.496 155.577C264.378 160.8 265.117 166.118 264.425 171.246C263.953 187.049 285.919 195.571 297.441 185.698C300.815 183.295 302.6 180.137 302.498 175.715C302.246 165.261 302.364 154.792 302.34 144.338C302.34 143.167 301.994 141.73 302.529 140.858C305.612 135.8 304.755 130.247 304.818 124.812C304.849 122.487 305.392 121.906 307.845 122.856C322.686 130.255 330.543 109.567 321.986 102.082Z" fill="#F6C0B9"/>
<path d="M317.991 292.87C254.264 301.164 288.97 286.335 241.185 273.32C244.96 284.104 251.574 313.408 259.863 318.066C272.447 325.135 285.722 330.334 298.408 333.712C299.879 334.018 312.934 338.267 317.7 337.49C319.674 322.857 320.728 307.541 317.991 292.87Z" fill="#F6C0B9"/>
<path d="M303.772 336.084C303.245 335.683 302.773 335.008 301.994 335.66C302.663 344.786 303.433 353.905 303.976 363.039C304.283 368.215 304.802 373.164 309.843 376.172C311.086 376.188 312.313 376.164 312.863 374.727C308.836 372.818 305.832 370.58 305.706 365.262C305.478 355.531 304.456 345.815 303.772 336.084Z" fill="#1B2149"/>
<path d="M168.303 340.749C163.16 339.752 163.136 335.864 162.822 331.748C162.2 323.509 163.915 316.495 163.679 307.188C163.86 305.515 163.797 303.811 163.852 302.122C162.106 302.546 162.358 304.038 162.177 305.287C160.596 316.22 159.188 327.491 161.548 338.487C162.24 341.181 166.99 341.88 168.303 340.749Z" fill="#1B2149"/>
<path d="M371.856 286.971C371.754 286.343 371.109 286.35 370.597 286.382C368.277 286.515 365.957 286.665 363.645 286.806C360.641 286.9 357.637 286.955 354.64 287.105C353.453 287.159 352.226 287.513 351.84 285.864C350.763 274.86 349.685 263.864 348.608 252.86C348.278 244.542 347.947 236.225 347.601 227.907C347.578 227.302 347.924 226.352 347.098 226.25C345.832 226.093 346.233 227.263 346.225 227.899C346.107 236.232 346.626 244.542 347.31 252.844C347.759 263.927 348.749 274.962 350.59 285.911C350.488 287.819 351.156 288.66 353.287 288.487C356.732 288.204 360.208 288.251 363.669 288.157C365.989 288.11 368.317 288.078 370.637 288C371.258 287.984 371.997 287.843 371.856 286.971Z" fill="#1B2149"/>
<path d="M426.193 310.18C424.124 300.135 421.623 290.199 418.658 280.381C417.84 277.711 417.03 275.048 416.212 272.378C408.104 247.715 397.809 224.074 383.519 202.294C376.96 192.304 369.056 183.742 357.935 178.669C357.338 178.394 356.74 178.134 356.15 177.86C355.309 177.475 353.956 176.941 353.681 177.742C353.319 178.771 354.813 178.857 355.592 179.195C365.352 183.397 373.043 190.034 379.178 198.673C394.239 219.872 404.447 243.427 413.137 267.736C413.711 269.33 414.317 270.917 414.907 272.511C415.701 275.135 416.488 277.75 417.282 280.373C419.492 288.974 421.733 297.566 423.865 306.19C424.179 307.463 425.131 308.908 423.778 310.212C424.588 310.18 425.39 310.18 426.193 310.18Z" fill="#1B2149"/>
<path d="M320.397 295.611C320.107 292.846 320.02 292.854 317.983 292.87C319.933 301.761 319.729 310.777 319.312 319.778C319.061 325.245 318.557 330.703 318.164 336.162C318.007 336.602 317.849 337.05 317.692 337.497C318.015 338.778 316.512 340.914 318.117 341.173C319.462 341.393 318.848 338.95 319.351 337.772C319.54 337.332 319.414 336.767 319.43 336.256C321.412 322.739 321.813 309.191 320.397 295.611Z" fill="#1B2149"/>
<path d="M324.66 173.343C323.834 172.715 323.37 174.199 323.032 175.016C317.92 183.106 312.132 190.544 304.353 196.364C297.818 201.257 290.551 204.124 282.6 205.507C264.024 206.535 251.7 197.896 244.669 181.056C243.662 178.653 242.569 176.289 241.515 173.901C241.2 172.385 240.005 172.731 239.014 172.77C231.031 173.123 223.049 173.43 215.074 173.901C202.066 174.663 192.117 181.3 183.702 190.638C172.81 202.726 165.33 216.997 158.134 231.394C148.767 250.127 141.241 269.637 134.021 289.272C133.62 290.364 133.125 291.424 132.669 292.5C131.898 296.852 129.129 300.653 129.145 305.224C131.253 304.627 131.033 302.554 131.552 301.101C141.154 274.129 151.19 247.346 164.74 222.032C169.184 213.722 174.084 205.703 179.55 198.014C190.961 181.96 206.14 173.634 226.124 174.875C229.199 174.27 232.298 174.317 235.404 174.498C236.781 174.467 238.165 174.443 239.541 174.412C239.966 174.443 240.39 174.474 240.807 174.498C240.854 174.938 240.902 175.378 240.949 175.825C242.758 180.294 244.527 184.771 247.036 188.918C255.176 202.357 267.209 207.965 282.702 206.63C292.195 206.3 299.965 201.894 307.145 196.207C314.098 190.701 319.658 184.002 323.771 176.124C324.408 175.268 326.005 174.372 324.66 173.343Z" fill="#1B2149"/>
<path d="M241.444 45.641C237.787 45.5311 234.476 46.1987 231.559 48.1308C228.562 50.1101 226.698 52.8198 226.808 56.5899C226.863 58.6005 227.076 61.0903 228.79 61.7972C230.284 62.4177 230.528 59.7394 231.472 58.6398C236.655 52.6156 243.505 50.2043 251.079 49.1911C252.07 49.0576 253.194 49.3011 254.036 48.4764C253.123 48.0601 252.243 47.4868 251.283 47.2511C247.988 46.4736 244.708 45.5311 241.444 45.641Z" fill="white"/>
<path d="M281.853 93.4341C278.88 93.7562 274.846 93.9682 274.547 97.267C273.516 101.618 285.966 102.435 288.837 101.673C296.992 99.4976 288.955 92.6566 281.853 93.4341Z" fill="#1B2149"/>
<path d="M254.578 101.398C264.197 101.728 264.142 93.5284 254.547 94.2353C244.7 94.9658 243.725 101.021 254.578 101.398Z" fill="#1B2149"/>
<path d="M267.594 131.229C271.173 131.323 274.633 130.742 277.968 129.462C278.66 129.195 279.682 128.763 279.313 127.867C279.006 127.121 278.196 127.828 277.622 127.993C270.724 129.972 263.867 131.417 257.37 126.752C257.134 126.579 256.505 126.556 256.379 126.713C255.813 127.435 256.482 127.875 256.93 128.276C259.989 131.001 263.749 131.3 267.594 131.229Z" fill="#1B2149"/>
<path d="M284.582 111.617C284.889 110.494 284.881 109.292 284.558 108.169C284.228 107.014 283.646 106.158 282.12 106.244C279.942 106.362 279.053 108.145 279.1 110.069C279.147 111.9 279.698 113.895 282.128 113.761C283.733 113.675 284.283 112.709 284.582 111.617Z" fill="#1B2149"/>
<path d="M252.243 109.457C252.038 110.368 251.999 111.326 252.235 112.229C252.502 113.274 253.076 114.091 254.358 114.107C256.592 114.13 257.323 112.206 257.417 110.258C257.504 108.506 257.3 106.504 254.964 106.574C253.076 106.629 252.565 108.012 252.243 109.457Z" fill="#1B2149"/>
<path d="M268.428 152.404C267.547 152.113 263.796 151.564 263.796 151.564C263.796 151.564 266.462 154.43 267.201 155.067C271.542 158.758 276.458 160.376 282.089 158.672C287.72 156.967 300.752 146.073 301.538 142.932C298.392 145.28 280.304 156.276 268.428 152.404Z" fill="#A9767D" fill-opacity="0.5"/>
<path d="M283.457 377.028C276.647 376.227 269.836 375.418 263.017 374.617C257.016 373.643 251.016 372.669 245.023 371.687C235.609 369.668 226.203 367.65 216.789 365.639C216.081 365.49 215.051 364.94 214.917 366.103C214.791 367.163 216.018 366.967 216.671 367.132C226.006 369.472 235.397 371.593 244.928 372.975C250.929 373.957 256.922 374.939 262.923 375.92C269.726 377.154 276.607 377.782 283.497 378.3C289.497 378.795 299.422 380.075 305.423 380.562C305.431 380.193 305.447 379.816 305.455 379.447C299.43 378.913 289.474 377.578 283.457 377.028Z" fill="#1B2149"/>
<path d="M265.03 122.518C265.927 122.424 267.225 122.825 267.39 121.678C267.586 120.296 266.187 120.578 265.4 120.602C262.018 120.704 262.506 119.063 263.56 116.926C264.543 114.939 265.345 112.858 266.21 110.808C266.43 110.282 266.391 109.771 265.785 109.528C265.196 109.284 264.724 109.598 264.504 110.093C263.245 112.96 261.68 115.756 260.909 118.756C260.099 121.906 262.758 122.236 265.03 122.518Z" fill="#1B2149"/>
<path d="M319.627 100.511C325.195 88.6431 333.398 75.228 326.713 62.025C319.359 50.9033 305.816 46.1044 292.95 46.395C281.255 46.6149 279.32 55.0425 266.037 50.542C255.939 48.1858 246.352 42.2165 235.632 44.7142C226.069 46.9369 221.791 56.849 228.271 64.177C229.569 65.6458 229.647 67.523 230.418 69.1645C239.439 89.5777 264.464 85.7291 279.006 73.7435C280.972 72.3612 281.963 71.9842 283.339 74.5682C291.66 92.2796 304.959 81.8413 304.912 105.93C308.876 101.422 313.335 98.1546 319.627 100.511ZM241.444 45.641C245.597 45.7195 250.206 46.5599 254.036 48.4842C245.801 50.33 237.26 51.3746 231.472 58.6476C230.528 59.7472 230.285 62.4255 228.79 61.8051C221.806 53.9979 232.746 44.3529 241.444 45.641Z" fill="#1B2149"/>
<path d="M311.392 103.833C311.495 103.786 311.605 103.747 311.731 103.723C311.951 103.684 317.228 102.757 320.429 105.545C322.025 106.936 322.812 108.938 322.765 111.475C322.718 114.004 321.868 116.031 320.24 117.5C317.008 120.421 311.872 119.95 311.66 119.934C310.866 119.856 310.268 119.141 310.331 118.332C310.394 117.523 311.078 116.934 311.872 117.013C311.912 117.013 316.009 117.374 318.313 115.285C319.344 114.35 319.855 113.062 319.886 111.358C319.918 109.724 319.493 108.554 318.589 107.76C316.811 106.205 313.445 106.402 312.297 106.606C311.518 106.747 310.755 106.213 310.606 105.42C310.472 104.752 310.81 104.1 311.392 103.833Z" fill="#1B2149"/>
<path d="M186.738 265.497C186.746 265.497 186.746 265.497 186.754 265.497L186.652 265.293C186.675 265.364 186.707 265.435 186.738 265.497Z" fill="#7B57DF"/>
<path d="M186.376 264.783L186.644 265.293C186.62 265.238 186.596 265.191 186.573 265.136L186.376 264.783Z" fill="#7B57DF"/>
<path d="M260.925 316.613C261.539 315.309 261.295 313.369 259.698 310.479C246.918 285.164 234.256 259.795 221.539 234.457C219.872 231.881 218.849 227.883 215.216 227.671C203.419 226.831 191.63 227.538 179.841 227.805C177.411 227.86 175.641 228.378 174.438 229.344H174.422L174.359 229.407C174.28 229.47 174.202 229.533 174.131 229.596C173.95 229.768 173.777 229.957 173.628 230.153L169.491 234.363L172.432 234.45C172.432 234.952 172.456 235.478 172.519 236.044C175.775 246.05 182.184 255.334 186.573 265.12L186.769 265.474C186.762 265.474 186.754 265.474 186.754 265.474L192.275 276.046C192.353 275.991 192.424 275.936 192.503 275.873L195.035 280.476C194.878 280.46 194.721 280.436 194.555 280.421L200.934 292.626C200.879 292.87 211.417 312.796 214.304 318.247C214.752 319.087 215.625 319.598 216.584 319.582L216.6 319.613L245.447 318.977C248.279 318.859 252.463 319.331 255.813 319.016L256.489 321.278L259.604 318.003C260.194 317.65 260.642 317.194 260.925 316.613Z" fill="#7B57DF"/>
<path d="M255.774 314.414C242.994 289.099 230.332 263.73 217.615 238.392C215.947 235.816 214.925 231.818 211.291 231.606C199.494 230.766 187.705 231.473 175.916 231.74C170.065 231.873 168.004 234.662 168.586 239.987C171.882 250.119 178.409 259.505 182.806 269.425C182.814 269.425 182.814 269.425 182.821 269.425L182.452 268.71L182.845 269.417C182.837 269.417 182.829 269.417 182.829 269.417L188.35 279.989C188.429 279.934 188.5 279.879 188.578 279.816L191.111 284.418C190.953 284.403 190.796 284.379 190.631 284.363L197.009 296.569C196.954 296.812 207.493 316.739 210.379 322.189C210.827 323.03 211.7 323.54 212.66 323.525L212.676 323.556L241.523 322.92C248.074 322.661 261.932 325.567 255.774 314.414Z" fill="#B3A1E6"/>
<path d="M208.177 316.762C212.204 315.435 210.245 310.817 211.905 307.691C216.081 295.406 189.381 300.001 189.381 296.05C189.381 294.511 211.889 301.58 212.676 293.726C213.494 285.557 196.915 285.494 189.742 284.293C188.492 284.206 186.84 284.473 186.423 282.934C187.108 277.137 201.429 275.849 198.637 269.134C194.422 264.052 181.634 270.234 176.601 273.273C162.735 282.722 164.316 289.429 163.679 308.767C162.987 325.174 155.893 348.164 180.871 342.037C184.489 338.432 188.217 334.968 190.175 329.8C192.975 325.158 203.6 316.479 208.177 316.762Z" fill="#F6C0B9"/>
<path d="M188.39 307.981C187.863 307.989 186.974 308.35 186.911 308.633C186.699 309.607 187.886 309.419 188.547 309.419C194.611 309.426 200.674 309.395 206.73 309.332C207.438 309.324 208.625 309.419 208.523 308.531C208.429 307.738 207.304 307.895 206.573 307.887C203.623 307.84 191.504 307.918 188.39 307.981Z" fill="#A9767D"/>
<path d="M361.6 455.39C329.914 468.342 266.131 488.284 233.328 501.455C233.076 501.557 233.139 501.926 233.407 501.942C256.592 503.749 319.871 500.968 339.147 501.848C339.241 501.856 339.32 501.809 339.367 501.73C347.845 488.15 363.425 458.854 365.737 454.495C365.847 454.29 365.651 454.063 365.438 454.133C364.432 454.455 362.426 455.099 361.6 455.39Z" fill="#7B57DF"/>
<path d="M498.154 261.523C495.755 264.712 497.092 269.731 496.141 274.027C493.199 313.589 490.533 353.19 486.679 392.642C482.37 429.007 479.994 465.805 473.939 501.864H476.054C475.527 500.78 477.273 490.043 477.273 490.043C481.866 450.332 486.797 410.621 489.825 370.768C490.344 366.173 490.887 361.579 491.39 356.992C493.058 324.561 497.47 293.168 498.154 261.523Z" fill="#1B2149"/>
<path d="M436.023 457.88C419.382 437.781 396.543 448.784 384.117 448.455V448.517C379.5 450.261 374.679 449.963 369.174 451.596C361.734 455.296 359.736 464.163 355.018 472.803C350.189 481.639 343.221 492.438 339.288 501.864C338.887 502.822 369.426 501.172 384.117 501.754V501.864H389.583C389.842 502.154 418.949 501.73 430.565 501.864C446.876 495.242 443.298 469.92 436.023 457.88Z" fill="white"/>
<path d="M394.482 446.876C389.465 458.791 384.998 470.863 383.944 483.917C383.889 484.576 383.912 485.841 383.126 485.77C382.151 485.676 382.63 484.498 382.662 483.83C383.33 471.546 387.097 460.102 392.202 449.028C392.469 448.455 392.705 447.865 392.941 447.276C393.035 447.041 393.271 446.892 393.523 446.884L394.482 446.876Z" fill="#1B2149"/>
<path d="M380.578 449.397C376.15 458.484 373.043 467.957 372.084 478.065C372.021 478.725 372.28 480.021 371.29 479.919C370.456 479.832 370.857 478.623 370.888 477.924C371.305 468.946 373.861 460.527 377.573 452.39C378.132 451.172 380.247 448.525 380.578 449.397Z" fill="#1B2149"/>
<path d="M397.841 497.19C399.122 479.62 402.78 462.569 409.181 446.13C409.677 444.849 411.792 443.074 410.699 446.051C404.777 462.223 400.876 478.811 399.335 495.965C399.272 496.68 399.272 497.261 399.358 497.724C399.453 498.235 399.091 498.714 398.564 498.714C398.045 498.714 397.667 498.251 397.77 497.748C397.809 497.583 397.833 497.395 397.841 497.19Z" fill="#1B2149"/>
<path d="M280.28 395.643C266.147 395.328 251.181 395.32 237.048 395.038C240.925 399.554 235.79 414.045 230.756 417.815C221.382 424.837 192.872 439.948 191.96 440.388C186.691 442.902 181.406 445.36 175.72 446.821C189.522 447.999 188.885 446.782 191.386 460.134C193.863 473.353 195.098 486.815 199.935 499.515C200.218 500.261 200.257 500.748 200.108 501.078H223.387C222.797 500.599 222.333 499.931 221.909 499.162C212.416 482.024 204.551 464.155 198.087 445.69C197.788 444.842 228.137 430.225 237.968 422.842C241.712 420.022 273.878 397.763 280.28 395.643Z" fill="#7B57DF"/>
<path d="M199.927 499.515C195.09 486.815 193.856 473.353 191.378 460.134C188.877 446.782 189.514 447.991 175.712 446.821C175.68 446.844 175.649 446.86 175.617 446.884C171.017 446.852 165.252 446.852 160.675 446.876C160.675 446.876 160.675 446.884 160.682 446.884H159.314C159.314 446.876 159.306 446.868 159.306 446.868C154.729 446.923 150.167 445.941 145.598 446.42L139.015 446.295C130.058 446.68 118.898 443.75 113.054 452.578C103.853 465.797 100.479 482.778 106.346 498.125C107.211 501.133 109.216 501.777 112.236 501.73C123.813 501.565 135.39 501.565 146.967 501.706L146.974 501.746C163.962 501.479 181.028 501.761 198.087 501.691C199.683 501.699 200.69 501.51 199.927 499.515Z" fill="white"/>
<path d="M141.65 445.926C144.599 458.516 146.982 471.161 145.826 484.207C145.771 484.859 145.535 486.108 146.322 486.171C147.297 486.241 147.029 485 147.1 484.333C148.5 472.112 146.707 460.197 143.53 448.423C143.365 447.811 143.231 447.19 143.089 446.57C143.034 446.318 142.83 446.13 142.578 446.09L141.65 445.926Z" fill="#1B2149"/>
<path d="M152.999 446.577C155.838 456.277 157.316 466.135 156.561 476.267C156.514 476.926 156.034 478.159 157.033 478.222C157.867 478.277 157.678 477.021 157.765 476.322C158.858 467.399 157.749 458.673 155.453 450.033C155.106 448.737 153.463 445.776 152.999 446.577Z" fill="#1B2149"/>
<path d="M130.412 499.79C132.087 482.259 131.347 464.831 127.793 447.559C127.517 446.216 125.732 444.103 126.306 447.221C129.428 464.155 130.498 481.16 129.145 498.329C129.09 499.044 128.988 499.617 128.823 500.057C128.642 500.544 128.925 501.078 129.436 501.164C129.948 501.251 130.396 500.858 130.388 500.34C130.38 500.183 130.388 499.994 130.412 499.79Z" fill="#1B2149"/>
<path d="M152.162 499.201C237.272 499.251 322.372 499.311 407.482 499.361C409.642 499.361 419.422 499.401 426.322 499.401C465.962 499.391 505.612 499.381 545.252 499.371C572.732 499.361 600.222 499.361 627.702 499.351C629.032 499.351 630.372 499.351 631.702 499.421C632.542 499.471 633.442 499.641 633.392 500.771C633.342 501.821 632.482 502.071 631.642 502.141C630.812 502.201 629.982 502.121 629.152 502.121C438.752 502.181 248.362 502.261 57.972 502.311C16.322 502.321 -25.318 502.191 -66.958 502.121C-67.458 502.121 -67.968 502.181 -68.458 502.101C-69.778 501.891 -72.078 502.751 -71.998 500.671C-71.918 498.661 -69.608 499.431 -68.278 499.431C-34.298 499.381 -0.317963 499.391 33.662 499.391C34.662 499.391 125.852 499.191 152.162 499.201Z" fill="#463262"/>
<path opacity="0.5" d="M111.467 93.6369C95.628 93.6448 79.7886 93.6526 63.9492 93.6134C62.8482 93.6134 61.3146 94.226 60.7326 92.9143C59.9854 91.2335 61.8179 90.8565 62.7302 90.0554C69.3129 84.2825 76.1472 78.8002 83.9018 74.6924C94.1887 69.2416 106.984 68.8724 116.068 78.2504C118.278 80.536 120.268 80.6146 123.036 79.405C132.356 75.3365 141.856 74.3076 151.435 78.6196C156.296 80.8031 160.417 83.8034 162.965 88.7123C164.923 92.4823 164.428 93.6055 160.165 93.6134C146.811 93.6448 133.457 93.6212 120.103 93.6212C117.224 93.6291 114.346 93.6291 111.467 93.6369Z" fill="#B3A1E6"/>
<path opacity="0.5" d="M435.76 159.306C423.586 159.306 411.419 159.314 399.245 159.298C397.971 159.298 396.311 159.675 395.737 158.222C395.053 156.494 396.94 156.133 397.923 155.497C403.169 152.072 407.998 147.917 413.771 145.428C420.912 142.349 428.108 141.972 435.013 146.496C436.743 147.627 437.829 149.276 438.851 150.855C440.243 153.015 441.108 152.999 443.027 151.365C447.793 147.313 453.07 144.469 459.739 145.027C464.954 145.459 474.265 152.442 475.728 157.46C476.46 159.974 474.509 159.267 473.455 159.275C464.159 159.338 454.871 159.322 445.575 159.33C442.304 159.33 439.032 159.33 435.76 159.33C435.76 159.322 435.76 159.314 435.76 159.306Z" fill="#B3A1E6"/>
</g>
<defs>
<clipPath id="clip0_5_1943">
<rect width="561" height="504" fill="white"/>
</clipPath>
</defs>
</svg>
