<svg width="35" height="36" viewBox="0 0 35 36" fill="none" xmlns="http://www.w3.org/2000/svg">
<path d="M0 2.5C0 1.39543 0.895431 0.5 2 0.5H33C34.1046 0.5 35 1.39543 35 2.5V33.5C35 34.6046 34.1046 35.5 33 35.5H2C0.89543 35.5 0 34.6046 0 33.5V2.5Z" fill="#7B57DF"/>
<path d="M34.9981 30.1974H25.0723C23.3446 30.1974 21.7766 29.8816 20.3683 29.25C18.96 28.6184 17.755 27.7571 16.7532 26.6662C15.7514 25.5609 14.9747 24.2689 14.423 22.7904C13.8858 21.2975 13.6172 19.697 13.6172 17.9888C13.6172 16.2949 13.8858 14.7159 14.423 13.2517C14.9747 11.7732 15.7514 10.4884 16.7532 9.39747C17.755 8.30651 18.96 7.44523 20.3683 6.81362C21.7766 6.18201 23.3446 5.86621 25.0723 5.86621H34.9981V10.3018H25.0723C23.9979 10.3018 23.0252 10.5028 22.1541 10.9047C21.2975 11.3066 20.5716 11.8521 19.9763 12.5411C19.381 13.2302 18.9237 14.0412 18.6043 14.9743C18.2849 15.9073 18.1252 16.9122 18.1252 17.9888C18.1252 19.0797 18.2849 20.0989 18.6043 21.0463C18.9237 21.9794 19.381 22.7976 19.9763 23.501C20.5716 24.19 21.2975 24.7355 22.1541 25.1374C23.0252 25.5393 23.9979 25.7403 25.0723 25.7403H34.9981V30.1974Z" fill="white"/>
<path d="M18.5938 23.2655C18.7231 23.5212 16.7628 22.655 16.6334 22.7828C16.5364 22.8787 19.1435 23.1057 18.5938 23.2655C18.0763 23.4253 20.0405 23.5124 19.523 23.6402C19.0056 23.7681 19.523 23.0893 18.5938 23.2655C17.4618 23.5851 20.6873 23.3206 19.523 23.6402C18.3911 23.9598 19.7257 22.9459 18.5938 23.2655C18.3674 23.3294 16.4072 22.8437 16.0838 22.9076C15.631 22.9715 15.1782 22.9875 14.7255 22.9556C14.305 22.9236 13.8846 22.8756 13.4642 22.8117C13.2378 22.7797 13.139 22.7477 12.945 22.7157C12.7509 22.6838 12.5439 22.7157 12.2514 22.6198L11.7522 22.4964C11.6971 22.4828 11.6403 22.4777 11.5839 22.4713C11.5504 22.4675 11.5193 22.4613 11.4905 22.4528C11.4473 22.4399 11.4142 22.4297 11.3693 22.4243C11.2599 22.4111 11.1348 22.4287 11.0564 22.5063C11.0016 22.5605 10.9428 22.6187 10.88 22.6807C10.8564 22.704 10.8347 22.7291 10.8138 22.7549C10.7729 22.8054 10.727 22.8559 10.676 22.9064C10.5377 23.0434 10.392 23.1732 10.2559 23.3124C10.0521 23.5207 9.87641 23.6737 9.72879 23.771C9.53474 23.8988 9.29218 24.0428 9.00111 24.2026C7.44875 24.9697 6.34916 24.8897 5.70234 23.9628C5.57297 23.7391 5.50829 23.499 5.50829 23.2433C5.50829 23.2243 5.50852 23.2059 5.50898 23.1882C5.51394 22.9974 5.59151 22.8145 5.72484 22.6779C5.78353 22.6178 5.85688 22.5505 5.94489 22.4759C6.36533 22.0924 6.93129 21.7563 7.64279 21.4687C8.3543 21.181 9.08197 20.989 9.82581 20.8931C10.128 20.8632 10.3939 20.6811 10.5309 20.4101L10.602 20.2696C10.7637 19.918 10.8931 19.5819 10.9901 19.2623C11.1194 18.9108 11.168 18.6867 11.1356 18.5908C11.1033 18.4949 10.9416 18.4629 10.6505 18.4949C10.3594 18.4949 9.98751 18.5429 9.53474 18.6388C9.11431 18.7347 8.62919 18.8627 8.0794 19.0225C7.56194 19.1503 7.02832 19.3104 6.47852 19.5021C5.34659 19.9496 4.48955 20.2697 3.90741 20.4614C3.35762 20.6212 3.00187 20.7012 2.84016 20.7012C2.38739 20.7012 1.98313 20.5252 1.62738 20.1736C1.27163 19.7901 1.09375 19.374 1.09375 18.9266C1.09375 18.4791 1.2878 17.951 1.67589 17.3438C2.09632 16.7046 2.61378 16.0804 3.22825 15.4732C3.84273 14.8659 4.52189 14.3058 5.26573 13.7944C6.04192 13.2511 6.76959 12.851 7.44875 12.5953C7.57811 12.5633 7.72365 12.5313 7.88535 12.4994C8.04706 12.4674 8.17642 12.4514 8.27344 12.4514C8.59685 12.4514 8.88792 12.5955 9.14665 12.8831C9.25692 12.98 9.34166 13.0769 9.40087 13.1738C9.57331 13.4561 9.44603 13.8856 9.11526 13.8902C9.10962 13.8903 9.10391 13.8903 9.09814 13.8903C8.83941 13.9223 8.49983 14.0503 8.0794 14.2741C7.65896 14.4658 7.22236 14.7219 6.76959 15.0415C6.31681 15.3291 5.86404 15.6652 5.41127 16.0487C4.95849 16.4003 4.5704 16.7524 4.24699 17.1039C4.11763 17.2637 3.9721 17.4558 3.81039 17.6795C3.64869 17.8713 3.48698 18.0633 3.32528 18.2551C3.19591 18.4149 3.08272 18.5749 2.9857 18.7347C2.93236 18.8401 3.028 18.9356 3.14279 18.9077C3.21627 18.8898 3.30944 18.8641 3.4223 18.8306C3.77805 18.7028 4.18231 18.5588 4.63509 18.399C5.73468 18.0474 6.67256 17.7753 7.44875 17.5836C8.25727 17.3599 8.93643 17.2318 9.48623 17.1999C10.036 17.1679 10.4888 17.2159 10.8446 17.3438C11.2326 17.4396 11.556 17.6317 11.8148 17.9193C12.4293 18.5585 12.5748 19.3747 12.2514 20.3655C12.219 20.4614 12.1867 20.5414 12.1544 20.6053C12.1325 20.6486 12.118 20.6846 12.1109 20.7133C12.1051 20.7367 12.1019 20.7609 12.0942 20.7837C12.0498 20.9153 12.136 21.055 12.2737 21.0731C12.6267 21.1193 12.9588 21.1553 13.2701 21.1809C13.6906 21.2128 14.4667 21.2609 14.9195 21.3248C14.9379 21.3248 14.955 21.3245 14.971 21.3239C15.236 21.3143 15.4956 21.1963 15.7488 21.2747C16.7939 21.5981 18.1938 23.3502 18.5938 23.2655C19.0789 23.1377 18.141 23.3934 18.5938 23.2655C19.6287 22.9779 17.6235 23.5212 18.5938 23.2655C19.5963 22.9779 18.4881 23.8959 19.523 23.6402C19.725 23.5849 18.3027 23.3614 18.5938 23.2655C19.1616 23.1159 19.9111 26.0384 19.523 23.6402C12.8629 18.5475 11.3618 18.2921 18.5938 23.2655C18.9333 24.8963 18.4644 23.2655 18.5938 23.2655C18.5938 22.7611 18.189 23.3423 18.5938 23.2655Z" fill="white"/>
</svg>
