<svg width="123" height="36" viewBox="0 0 123 36" fill="none" xmlns="http://www.w3.org/2000/svg">
<path d="M0 2.5C0 1.39543 0.895431 0.5 2 0.5H33C34.1046 0.5 35 1.39543 35 2.5V33.5C35 34.6046 34.1046 35.5 33 35.5H2C0.89543 35.5 0 34.6046 0 33.5V2.5Z" fill="#7B57DF"/>
<path d="M34.9981 30.1974H25.0723C23.3446 30.1974 21.7766 29.8816 20.3683 29.25C18.96 28.6184 17.755 27.7571 16.7532 26.6662C15.7514 25.5609 14.9747 24.2689 14.423 22.7904C13.8858 21.2975 13.6172 19.697 13.6172 17.9888C13.6172 16.2949 13.8858 14.7159 14.423 13.2517C14.9747 11.7732 15.7514 10.4884 16.7532 9.39747C17.755 8.30651 18.96 7.44523 20.3683 6.81362C21.7766 6.18201 23.3446 5.86621 25.0723 5.86621H34.9981V10.3018H25.0723C23.9979 10.3018 23.0252 10.5028 22.1541 10.9047C21.2975 11.3066 20.5716 11.8521 19.9763 12.5411C19.381 13.2302 18.9237 14.0412 18.6043 14.9743C18.2849 15.9073 18.1252 16.9122 18.1252 17.9888C18.1252 19.0797 18.2849 20.0989 18.6043 21.0463C18.9237 21.9794 19.381 22.7976 19.9763 23.501C20.5716 24.19 21.2975 24.7355 22.1541 25.1374C23.0252 25.5393 23.9979 25.7403 25.0723 25.7403H34.9981V30.1974Z" fill="white"/>
<path d="M18.5938 23.2655C18.7231 23.5212 16.7628 22.655 16.6334 22.7828C16.5364 22.8787 19.1435 23.1057 18.5938 23.2655C18.0763 23.4253 20.0405 23.5124 19.523 23.6402C19.0056 23.7681 19.523 23.0893 18.5938 23.2655C17.4618 23.5851 20.6873 23.3206 19.523 23.6402C18.3911 23.9598 19.7257 22.9459 18.5938 23.2655C18.3674 23.3294 16.4072 22.8437 16.0838 22.9076C15.631 22.9715 15.1782 22.9875 14.7255 22.9556C14.305 22.9236 13.8846 22.8756 13.4642 22.8117C13.2378 22.7797 13.139 22.7477 12.945 22.7157C12.7509 22.6838 12.5439 22.7157 12.2514 22.6198L11.7522 22.4964C11.6971 22.4828 11.6403 22.4777 11.5839 22.4713C11.5504 22.4675 11.5193 22.4613 11.4905 22.4528C11.4473 22.4399 11.4142 22.4297 11.3693 22.4243C11.2599 22.4111 11.1348 22.4287 11.0564 22.5063C11.0016 22.5605 10.9428 22.6187 10.88 22.6807C10.8564 22.704 10.8347 22.7291 10.8138 22.7549C10.7729 22.8054 10.727 22.8559 10.676 22.9064C10.5377 23.0434 10.392 23.1732 10.2559 23.3124C10.0521 23.5207 9.87641 23.6737 9.72879 23.771C9.53474 23.8988 9.29218 24.0428 9.00111 24.2026C7.44875 24.9697 6.34916 24.8897 5.70234 23.9628C5.57297 23.7391 5.50829 23.499 5.50829 23.2433C5.50829 23.2243 5.50852 23.2059 5.50898 23.1882C5.51394 22.9974 5.59151 22.8145 5.72484 22.6779C5.78353 22.6178 5.85688 22.5505 5.94489 22.4759C6.36533 22.0924 6.93129 21.7563 7.64279 21.4687C8.3543 21.181 9.08197 20.989 9.82581 20.8931C10.128 20.8632 10.3939 20.6811 10.5309 20.4101L10.602 20.2696C10.7637 19.918 10.8931 19.5819 10.9901 19.2623C11.1194 18.9108 11.168 18.6867 11.1356 18.5908C11.1033 18.4949 10.9416 18.4629 10.6505 18.4949C10.3594 18.4949 9.98751 18.5429 9.53474 18.6388C9.11431 18.7347 8.62919 18.8627 8.0794 19.0225C7.56194 19.1503 7.02832 19.3104 6.47852 19.5021C5.34659 19.9496 4.48955 20.2697 3.90741 20.4614C3.35762 20.6212 3.00187 20.7012 2.84016 20.7012C2.38739 20.7012 1.98313 20.5252 1.62738 20.1736C1.27163 19.7901 1.09375 19.374 1.09375 18.9266C1.09375 18.4791 1.2878 17.951 1.67589 17.3438C2.09632 16.7046 2.61378 16.0804 3.22825 15.4732C3.84273 14.8659 4.52189 14.3058 5.26573 13.7944C6.04192 13.2511 6.76959 12.851 7.44875 12.5953C7.57811 12.5633 7.72365 12.5313 7.88535 12.4994C8.04706 12.4674 8.17642 12.4514 8.27344 12.4514C8.59685 12.4514 8.88792 12.5955 9.14665 12.8831C9.25692 12.98 9.34166 13.0769 9.40087 13.1738C9.57331 13.4561 9.44603 13.8856 9.11526 13.8902C9.10962 13.8903 9.10391 13.8903 9.09814 13.8903C8.83941 13.9223 8.49983 14.0503 8.0794 14.2741C7.65896 14.4658 7.22236 14.7219 6.76959 15.0415C6.31681 15.3291 5.86404 15.6652 5.41127 16.0487C4.95849 16.4003 4.5704 16.7524 4.24699 17.1039C4.11763 17.2637 3.9721 17.4558 3.81039 17.6795C3.64869 17.8713 3.48698 18.0633 3.32528 18.2551C3.19591 18.4149 3.08272 18.5749 2.9857 18.7347C2.93236 18.8401 3.028 18.9356 3.14279 18.9077C3.21627 18.8898 3.30944 18.8641 3.4223 18.8306C3.77805 18.7028 4.18231 18.5588 4.63509 18.399C5.73468 18.0474 6.67256 17.7753 7.44875 17.5836C8.25727 17.3599 8.93643 17.2318 9.48623 17.1999C10.036 17.1679 10.4888 17.2159 10.8446 17.3438C11.2326 17.4396 11.556 17.6317 11.8148 17.9193C12.4293 18.5585 12.5748 19.3747 12.2514 20.3655C12.219 20.4614 12.1867 20.5414 12.1544 20.6053C12.1325 20.6486 12.118 20.6846 12.1109 20.7133C12.1051 20.7367 12.1019 20.7609 12.0942 20.7837C12.0498 20.9153 12.136 21.055 12.2737 21.0731C12.6267 21.1193 12.9588 21.1553 13.2701 21.1809C13.6906 21.2128 14.4667 21.2609 14.9195 21.3248C14.9379 21.3248 14.955 21.3245 14.971 21.3239C15.236 21.3143 15.4956 21.1963 15.7488 21.2747C16.7939 21.5981 18.1938 23.3502 18.5938 23.2655C19.0789 23.1377 18.141 23.3934 18.5938 23.2655C19.6287 22.9779 17.6235 23.5212 18.5938 23.2655C19.5963 22.9779 18.4881 23.8959 19.523 23.6402C19.725 23.5849 18.3027 23.3614 18.5938 23.2655C19.1616 23.1159 19.9111 26.0384 19.523 23.6402C12.8629 18.5475 11.3618 18.2921 18.5938 23.2655C18.9333 24.8963 18.4644 23.2655 18.5938 23.2655C18.5938 22.7611 18.189 23.3423 18.5938 23.2655Z" fill="white"/>
<path d="M116.932 31.5892H114.633V21.2264H108.554V18.9609H123V21.2264H116.932V31.5892Z" fill="#7B57DF"/>
<path d="M107.841 21.2244H96.9506V31.5872H94.629V18.9141H107.841V21.2244ZM106.349 26.3497H98.0384V24.0282H106.349V26.3497Z" fill="#7B57DF"/>
<path d="M91.3205 31.5872H89.0214V28.1217H80.1726V25.7778H89.0214V21.2244H83.0437C82.483 21.2244 81.9559 21.3328 81.4624 21.5496C80.9689 21.759 80.539 22.0468 80.1726 22.4132C79.8063 22.7796 79.5147 23.2095 79.2979 23.7029C79.0885 24.1889 78.9838 24.7123 78.9838 25.2731V31.5872H76.6623V25.2731C76.6623 24.3908 76.8305 23.5646 77.167 22.7945C77.5034 22.0244 77.9595 21.3515 78.5352 20.7758C79.1109 20.2001 79.7876 19.7477 80.5652 19.4187C81.3428 19.0823 82.1689 18.9141 83.0437 18.9141H91.3205V31.5872Z" fill="#7B57DF"/>
<path d="M74.5525 31.5892H71.4235L67.8346 28.1686H63.1803V25.8919H69.5393C69.8608 25.8919 70.1636 25.8284 70.4477 25.7013C70.7318 25.5742 70.9786 25.4059 71.1879 25.1966C71.3973 24.9798 71.5618 24.7293 71.6814 24.4452C71.801 24.161 71.8608 23.862 71.8608 23.5479C71.8608 23.2264 71.801 22.9274 71.6814 22.6507C71.5618 22.3666 71.3973 22.1199 71.1879 21.9105C70.9786 21.7012 70.7318 21.5367 70.4477 21.4171C70.1636 21.29 69.8608 21.2264 69.5393 21.2264H61.9803V31.5892H59.6812V18.9609H69.5393C70.1748 18.9609 70.773 19.0843 71.3337 19.331C71.8945 19.5703 72.3805 19.8993 72.7917 20.318C73.2104 20.7292 73.5394 21.2152 73.7786 21.7759C74.0179 22.3292 74.1375 22.9199 74.1375 23.5479C74.1375 24.0638 74.0553 24.5611 73.8908 25.0396C73.7263 25.5106 73.4945 25.9443 73.1955 26.3405C72.9039 26.7293 72.5562 27.0658 72.1524 27.3499C71.7487 27.634 71.3076 27.8434 70.829 27.9779L74.5525 31.5892Z" fill="#7B57DF"/>
<path d="M57.1242 31.5872H48.9708C48.081 31.5872 47.2736 31.4227 46.5483 31.0938C45.8231 30.7648 45.2025 30.3162 44.6866 29.7479C44.1707 29.1722 43.7707 28.4993 43.4866 27.7292C43.2099 26.9516 43.0716 26.1179 43.0716 25.2282C43.0716 24.3459 43.2099 23.5235 43.4866 22.7609C43.7707 21.9908 44.1707 21.3216 44.6866 20.7534C45.2025 20.1851 45.8231 19.7365 46.5483 19.4075C47.2736 19.0786 48.081 18.9141 48.9708 18.9141H57.1242V21.2244H48.9708C48.4175 21.2244 47.9166 21.3291 47.4679 21.5384C47.0268 21.7478 46.653 22.0319 46.3464 22.3908C46.0399 22.7497 45.8044 23.1721 45.6399 23.6581C45.4754 24.1441 45.3931 24.6675 45.3931 25.2282C45.3931 25.7964 45.4754 26.3273 45.6399 26.8208C45.8044 27.3068 46.0399 27.7329 46.3464 28.0993C46.653 28.4582 47.0268 28.7423 47.4679 28.9517C47.9166 29.161 48.4175 29.2657 48.9708 29.2657H57.1242V31.5872Z" fill="#7B57DF"/>
<path d="M96.7966 13.4053C96.846 13.5371 96.846 13.6359 96.7966 13.7018C96.7472 13.7512 96.5825 13.817 96.3026 13.8994C96.0391 13.9817 95.7015 14.0805 95.2898 14.1958C94.8945 14.2946 94.5075 14.4017 94.1287 14.517C94.0958 14.517 94.0711 14.5252 94.0546 14.5417C94.0382 14.5417 94.0135 14.5417 93.9805 14.5417C93.19 14.7722 92.3996 14.9945 91.6091 15.2086C90.8186 15.4227 90.0281 15.6368 89.2376 15.8509C88.8094 15.9662 88.373 16.0815 87.9284 16.1967C87.5002 16.2955 87.072 16.3861 86.6438 16.4685C86.3145 16.5343 85.9769 16.5837 85.631 16.6167C85.3017 16.6496 84.9723 16.6331 84.6429 16.5673C84.1653 16.452 83.7783 16.2461 83.4819 15.9497C83.169 15.6368 82.9961 15.2827 82.9631 14.8875C82.9302 14.377 83.0537 13.8006 83.3337 13.1583C83.5972 12.4996 84.0007 11.8573 84.5441 11.2315C84.6265 11.1327 84.7417 11.0009 84.89 10.8363C85.0546 10.6716 85.2029 10.5234 85.3346 10.3916L85.804 9.89756H85.3346C85.0546 9.89756 84.8488 9.88109 84.717 9.84815C84.5853 9.79875 84.47 9.70817 84.3712 9.57643C84.3053 9.47762 84.2642 9.40351 84.2477 9.3541C84.2477 9.28823 84.2889 9.23882 84.3712 9.20589C84.4535 9.17295 84.5935 9.14825 84.7911 9.13178C85.0052 9.11531 85.3017 9.09884 85.6804 9.08237L86.7921 9.03297L87.0885 8.78594C87.5167 8.40717 88.0025 8.06133 88.5459 7.74843C89.0894 7.43553 89.567 7.22144 89.9787 7.10616C90.1598 7.05676 90.2998 7.03205 90.3986 7.03205C90.5139 7.01559 90.6374 7.03205 90.7692 7.08146C91.148 7.19674 91.3785 7.41906 91.4609 7.74843C91.5597 8.06133 91.4773 8.38247 91.2138 8.71183L91.115 8.86005L91.4856 8.88475C91.9467 8.90122 92.2596 9.05767 92.4243 9.3541C92.4572 9.43644 92.4572 9.50232 92.4243 9.55172C92.3913 9.60113 92.309 9.6176 92.1772 9.60113C92.1114 9.56819 92.0043 9.55172 91.8561 9.55172C91.7243 9.55172 91.4938 9.56819 91.1644 9.60113L90.3245 9.65053L89.9293 9.97167C89.7975 10.0869 89.5999 10.2352 89.3364 10.4163C89.0894 10.581 88.8177 10.7622 88.5212 10.9598C88.2248 11.1574 87.9201 11.355 87.6072 11.5526C87.3108 11.7338 87.0391 11.8985 86.7921 12.0467C86.7262 12.0796 86.6191 12.1373 86.4709 12.2196C86.3392 12.3019 86.1992 12.3843 86.051 12.4666C85.8204 12.5984 85.5734 12.7548 85.3099 12.936C85.0464 13.1007 84.7994 13.2901 84.5688 13.5041C84.3383 13.7182 84.1489 13.957 84.0007 14.2205C83.8524 14.484 83.7783 14.7722 83.7783 15.0851C83.7783 15.3321 83.7948 15.5051 83.8277 15.6039C83.8771 15.6862 83.9924 15.7768 84.1736 15.8756C84.2724 15.9085 84.3547 15.9332 84.4206 15.9497C84.5029 15.9662 84.6429 15.9744 84.8405 15.9744C85.4499 15.9579 86.0345 15.8756 86.5944 15.7274C87.1708 15.5627 87.7472 15.3898 88.3236 15.2086C89.18 14.9287 90.0363 14.6734 90.8927 14.4428C91.7491 14.2123 92.6136 13.9817 93.4865 13.7512C94.1452 13.5535 94.8122 13.3806 95.4874 13.2324C95.6191 13.1995 95.7591 13.1583 95.9073 13.1089C96.072 13.0595 96.2202 13.0348 96.352 13.0348C96.5331 13.0348 96.6813 13.1583 96.7966 13.4053ZM88.2989 8.95886L89.0894 8.93416L89.8799 8.90945L90.201 8.61302C90.3657 8.44834 90.4975 8.29189 90.5963 8.14367C90.7115 7.97899 90.7856 7.84724 90.8186 7.74843C90.8351 7.68256 90.8351 7.64962 90.8186 7.64962C90.8021 7.64962 90.7115 7.66609 90.5469 7.69903C90.4316 7.73196 90.2751 7.7896 90.0775 7.87194C89.8799 7.95429 89.674 8.0531 89.4599 8.16838C89.2623 8.28365 89.0647 8.40717 88.8671 8.53892C88.6695 8.65419 88.513 8.76124 88.3977 8.86005L88.2989 8.95886ZM85.0876 12.0961L85.631 11.775C85.9604 11.5773 86.3062 11.3715 86.6685 11.1574C87.0473 10.9268 87.3932 10.7127 87.7061 10.5151C88.0354 10.3175 88.2989 10.1528 88.4965 10.0211C88.7106 9.87286 88.8177 9.79052 88.8177 9.77405C88.8177 9.75758 88.4801 9.76581 87.8049 9.79875L87.3108 9.82345L86.8662 10.2187C86.6356 10.4493 86.3639 10.721 86.051 11.0339C85.7381 11.3468 85.491 11.6103 85.3099 11.8244L85.0876 12.0961Z" fill="#1B2149"/>
<path d="M83.9858 13.3574C84.0517 13.4891 84.0599 13.5879 84.0105 13.6538C83.9611 13.7032 83.7964 13.7691 83.5164 13.8514C83.2529 13.9338 82.9153 14.0326 82.5036 14.1478C82.1084 14.2631 81.7214 14.3702 81.3426 14.469C81.2109 14.5019 80.898 14.5925 80.4039 14.7407C79.9099 14.8724 79.3746 15.0207 78.7982 15.1854C78.7324 15.2018 78.6665 15.2183 78.6006 15.2348C78.5347 15.2512 78.4606 15.2759 78.3783 15.3089C78.1807 15.3583 77.9501 15.4241 77.6866 15.5065C77.0114 15.7206 76.328 15.91 75.6363 16.0746C74.9611 16.2393 74.2694 16.3134 73.5613 16.297C72.8696 16.2805 72.1862 16.1405 71.511 15.877C70.8522 15.6135 70.3088 15.1936 69.8806 14.6172C69.7982 14.8972 69.7077 15.1771 69.6089 15.4571C69.5265 15.7206 69.4277 15.9841 69.3124 16.2476C68.736 17.6803 67.9785 18.9896 67.0398 20.1753C66.5622 20.7681 66.0517 21.3281 65.5082 21.8551C65.3765 21.9703 65.2612 22.0609 65.1624 22.1268C65.0636 22.2091 64.9236 22.2421 64.7424 22.2256C64.5777 22.2091 64.4378 22.135 64.3225 22.0033C64.1907 21.888 64.1084 21.748 64.0755 21.5833C64.0261 21.3692 64.0343 21.1552 64.1002 20.9411C64.166 20.727 64.2484 20.5211 64.3472 20.3235C64.7754 19.3848 65.253 18.4708 65.7799 17.5815C66.2905 16.6757 66.8175 15.7782 67.3609 14.8889C67.8879 14.049 68.4314 13.2174 68.9913 12.394C69.5512 11.5541 70.1358 10.7471 70.7452 9.9731C71.371 9.19908 72.0297 8.46624 72.7214 7.77456C73.4295 7.08289 74.1871 6.44885 74.994 5.87246C75.4222 5.57603 75.8586 5.31253 76.3033 5.08198C76.7644 4.83495 77.242 4.64556 77.736 4.51382C78.0654 4.43147 78.403 4.39854 78.7488 4.41501C79.1111 4.43147 79.3911 4.57146 79.5887 4.83495C79.7205 4.99963 79.8028 5.18902 79.8357 5.40311C79.8687 5.6172 79.8604 5.82305 79.811 6.02068C79.7616 6.2183 79.6793 6.40768 79.564 6.58884C79.4652 6.75352 79.3582 6.9182 79.2429 7.08289C78.6994 7.84044 78.0901 8.53211 77.4149 9.15791C76.7397 9.78371 76.0151 10.3683 75.2411 10.9118C74.4835 11.4388 73.693 11.9328 72.8696 12.394C72.0462 12.8386 71.2228 13.2668 70.3993 13.6785C70.2676 13.7444 70.1852 13.8102 70.1523 13.8761C70.1194 13.9585 70.1441 14.0737 70.2264 14.2219C70.5393 14.7654 71.0251 15.1524 71.6839 15.383C71.865 15.4159 72.1203 15.4406 72.4497 15.4571C72.779 15.4735 73.1825 15.4653 73.6601 15.4324C74.1541 15.3994 74.7141 15.3253 75.3399 15.2101C75.9657 15.0948 76.6656 14.9136 77.4396 14.6666C77.6207 14.6172 77.7854 14.5678 77.9336 14.5184C78.0819 14.469 78.1971 14.4278 78.2795 14.3949C78.4112 14.3619 78.543 14.329 78.6747 14.2961C78.8229 14.2631 78.93 14.2302 78.9959 14.1972C79.6052 14.0326 80.1733 13.8761 80.7003 13.7279C81.2438 13.5797 81.7214 13.4562 82.1331 13.3574C82.5448 13.2421 82.8742 13.1515 83.1212 13.0856C83.3682 13.0198 83.5164 12.9868 83.5658 12.9868C83.6482 12.9868 83.7305 13.028 83.8129 13.1103C83.8952 13.1762 83.9528 13.2585 83.9858 13.3574ZM71.4368 10.9118C71.3051 11.0765 71.1651 11.2659 71.0169 11.48C70.8852 11.6776 70.7534 11.867 70.6217 12.0481C70.5064 12.2128 70.4076 12.3528 70.3252 12.4681C70.2594 12.5833 70.2347 12.641 70.2511 12.641C70.2511 12.641 70.3252 12.5998 70.4734 12.5175C70.6381 12.4351 70.8275 12.3363 71.0416 12.221C71.2557 12.1058 71.478 11.9822 71.7086 11.8505C71.9556 11.7187 72.1697 11.6035 72.3508 11.5047C73.6189 10.7965 74.7552 10.0637 75.7598 9.30612C76.7644 8.53211 77.5796 7.77456 78.2054 7.03348C78.5677 6.6053 78.8476 6.21006 79.0453 5.84776C79.2593 5.46898 79.3252 5.24666 79.2429 5.18079C79.1935 5.14785 79.0535 5.13962 78.8229 5.15608C78.6088 5.17255 78.4112 5.19725 78.2301 5.23019C77.0938 5.55956 75.7927 6.39122 74.3271 7.72516C73.8824 8.13687 73.3884 8.64739 72.8449 9.25672C72.3014 9.84958 71.8321 10.4013 71.4368 10.9118ZM68.7196 15.2842C68.8842 14.8724 68.9666 14.6337 68.9666 14.5678C68.9666 14.5513 68.9254 14.5925 68.8431 14.6913C68.7772 14.7901 68.6949 14.9136 68.596 15.0618C68.4478 15.3089 68.2831 15.5888 68.102 15.9017C67.9044 16.1982 67.7067 16.5028 67.5091 16.8157C67.3115 17.1286 67.1304 17.4168 66.9657 17.6803C66.801 17.9438 66.6692 18.1579 66.5704 18.3226C66.4716 18.5037 66.3563 18.7178 66.2246 18.9649C66.0764 19.2119 65.9364 19.4507 65.8046 19.6812C65.6729 19.9283 65.5659 20.1341 65.4835 20.2988C65.3847 20.4635 65.3353 20.5541 65.3353 20.5705C65.3353 20.587 65.3765 20.5458 65.4588 20.447C65.5412 20.3647 65.64 20.2576 65.7552 20.1259C66.4799 19.286 67.0727 18.4955 67.5338 17.7544C67.9949 16.9969 68.3902 16.1735 68.7196 15.2842Z" fill="#1B2149"/>
<path d="M69.2183 13.3833C69.2677 13.515 69.2677 13.6056 69.2183 13.655C69.1689 13.7044 69.0042 13.7703 68.7243 13.8526C67.9338 14.0996 67.1433 14.3302 66.3528 14.5443C65.5623 14.7584 64.7718 14.9807 63.9814 15.2113C63.8167 15.2442 63.652 15.2854 63.4873 15.3348C63.3391 15.3677 63.1826 15.4006 63.018 15.4336C62.8368 15.4665 62.6721 15.483 62.5239 15.483C62.3757 15.4665 62.211 15.4501 62.0299 15.4336C61.7005 15.4006 61.3711 15.3595 61.0418 15.3101C60.7289 15.2607 60.416 15.1866 60.1031 15.0877C60.0042 15.0548 59.9137 15.0301 59.8313 15.0136C59.749 14.9807 59.6749 14.9478 59.609 14.9148L59.4361 14.8407L59.0408 15.1124C58.6456 15.4089 58.2257 15.6641 57.781 15.8782C57.3364 16.0923 56.8917 16.2652 56.4471 16.397C56.1012 16.4958 55.813 16.5287 55.5825 16.4958C55.3519 16.4464 55.1461 16.3146 54.9649 16.1006C54.7838 15.9029 54.6932 15.6724 54.6932 15.4089C54.6932 15.2113 54.792 14.9313 54.9896 14.569C55.1708 14.2067 55.4013 13.8361 55.6813 13.4574C55.8295 13.2597 56.0024 13.0621 56.2 12.8645C56.3977 12.6504 56.6035 12.4446 56.8176 12.2469C57.0317 12.0493 57.2375 11.8764 57.4352 11.7282C57.6493 11.5635 57.8304 11.44 57.9786 11.3576C58.2421 11.2259 58.4644 11.2341 58.6456 11.3823C58.7609 11.4482 58.8679 11.4976 58.9667 11.5306C59.1644 11.5635 59.3784 11.6541 59.609 11.8023C59.856 11.934 60.0454 12.0905 60.1772 12.2716C60.3748 12.5681 60.4571 12.8892 60.4242 13.235C60.4077 13.5809 60.276 13.9185 60.0289 14.2479L59.9054 14.3714L60.3254 14.4702C60.9182 14.6184 61.5111 14.6596 62.104 14.5937C62.7133 14.5278 63.3062 14.4208 63.8826 14.2726C64.179 14.1902 64.4672 14.1079 64.7471 14.0255C65.0436 13.9432 65.34 13.8691 65.6364 13.8032C65.9987 13.7209 66.3611 13.6303 66.7234 13.5315C67.0857 13.4162 67.448 13.3092 67.8103 13.2103C67.9585 13.1774 68.1149 13.1362 68.2796 13.0868C68.4608 13.0374 68.6255 13.0127 68.7737 13.0127C68.9548 13.0127 69.103 13.1362 69.2183 13.3833ZM58.6209 12.4199C58.4891 12.601 58.4644 12.848 58.5468 13.1609C58.5962 13.3092 58.6703 13.4738 58.7691 13.655C58.8679 13.8197 58.942 13.902 58.9914 13.902C59.0408 13.902 59.1232 13.8361 59.2385 13.7044C59.3537 13.5562 59.4525 13.4162 59.5349 13.2845C59.6008 13.1362 59.6502 12.9716 59.6831 12.7904C59.6831 12.6751 59.6749 12.601 59.6584 12.5681C59.6584 12.5351 59.6337 12.4775 59.5843 12.3952C59.502 12.3128 59.4031 12.2552 59.2879 12.2222C58.9914 12.1234 58.7691 12.1893 58.6209 12.4199ZM58.5715 14.322L58.3245 14.0255C58.2586 13.9432 58.1845 13.8444 58.1021 13.7291C58.0363 13.6138 57.9869 13.515 57.9539 13.4327C57.8551 13.268 57.7892 13.128 57.7563 13.0127C57.7398 12.9798 57.7151 12.9716 57.6822 12.988C57.6493 13.0045 57.5587 13.0868 57.4105 13.235C56.7517 13.9103 56.2412 14.569 55.8789 15.2113C55.7472 15.4418 55.6813 15.59 55.6813 15.6559C55.6648 15.7053 55.6977 15.7135 55.7801 15.6806C56.2083 15.5983 56.6529 15.45 57.114 15.236C57.5916 15.0054 58.0116 14.7584 58.3739 14.4949L58.5715 14.322Z" fill="#1B2149"/>
<path d="M56.6111 13.2101C56.677 13.3419 56.677 13.4407 56.6111 13.5066C56.5617 13.556 56.3971 13.6219 56.1171 13.7042C55.8536 13.7865 55.5901 13.8606 55.3266 13.9265C55.0631 13.9924 54.7996 14.0665 54.5361 14.1488C53.9597 14.3135 53.3751 14.4782 52.7822 14.6429C52.2058 14.8076 51.6295 14.9723 51.0531 15.1369C50.9378 15.1699 50.7978 15.2028 50.6331 15.2358C50.4026 15.2687 50.172 15.2769 49.9414 15.2605C49.7273 15.244 49.5133 15.2193 49.2992 15.1864C49.1839 15.1699 49.0768 15.1617 48.978 15.1617C48.8792 15.1452 48.7804 15.1205 48.6816 15.0875L48.3852 15.0134C48.3358 15.0134 48.2946 15.0052 48.2617 14.9887C48.2287 14.9887 48.1876 14.9805 48.1381 14.964C48.0887 15.0134 48.0311 15.0711 47.9652 15.1369C47.9158 15.2028 47.85 15.2687 47.7676 15.3346C47.6194 15.4993 47.4959 15.6145 47.3971 15.6804C47.2983 15.7463 47.1747 15.8204 47.0265 15.9027C46.236 16.298 45.6761 16.2568 45.3468 15.7792C45.2809 15.6639 45.2479 15.5404 45.2479 15.4087C45.2479 15.3263 45.2562 15.2687 45.2726 15.2358C45.2891 15.1864 45.355 15.1122 45.4703 15.0134C45.6844 14.8158 45.9725 14.6429 46.3349 14.4947C46.6972 14.3465 47.0677 14.2477 47.4465 14.1982L47.6935 14.1735L47.8417 13.8771C47.9241 13.696 47.9899 13.523 48.0393 13.3584C48.1052 13.1772 48.1299 13.0619 48.1134 13.0125C48.097 12.9631 48.0146 12.9466 47.8664 12.9631C47.7182 12.9631 47.5288 12.9878 47.2983 13.0372C47.0842 13.0866 46.8371 13.1525 46.5572 13.2348C46.2937 13.3007 46.022 13.3831 45.742 13.4819C45.1656 13.7124 44.7292 13.8771 44.4328 13.9759C44.1528 14.0583 43.9716 14.0994 43.8893 14.0994C43.6587 14.0994 43.4529 14.0089 43.2717 13.8277C43.0906 13.6301 43 13.416 43 13.1854C43 12.9549 43.0988 12.6832 43.2964 12.3703C43.5105 12.0409 43.774 11.7198 44.0869 11.4069C44.3998 11.094 44.7457 10.8058 45.1244 10.5423C45.5197 10.2623 45.8902 10.0564 46.236 9.92469C46.3019 9.90823 46.376 9.89176 46.4584 9.87529C46.5407 9.85882 46.6066 9.85059 46.656 9.85059C46.8207 9.85059 46.9689 9.92469 47.1006 10.0729C47.2489 10.2047 47.3065 10.3364 47.2736 10.4682C47.2736 10.5505 47.2077 10.5917 47.0759 10.5917C46.9442 10.6081 46.7713 10.674 46.5572 10.7893C46.3431 10.8881 46.1208 11.0198 45.8902 11.1845C45.6596 11.3327 45.4291 11.5057 45.1985 11.7033C44.968 11.8844 44.7704 12.0656 44.6057 12.2467C44.5398 12.3291 44.4657 12.4279 44.3833 12.5432C44.301 12.642 44.2187 12.7408 44.1363 12.8396C44.0704 12.9219 44.0128 13.0043 43.9634 13.0866C43.9305 13.1525 43.9222 13.1854 43.9387 13.1854C43.9387 13.2019 44.021 13.1854 44.1857 13.136C44.3669 13.0702 44.5727 12.9961 44.8033 12.9137C45.3632 12.7326 45.8408 12.5926 46.236 12.4938C46.6478 12.3785 46.9936 12.3126 47.2736 12.2961C47.5535 12.2797 47.7841 12.3044 47.9652 12.3703C48.1628 12.4197 48.3275 12.5185 48.4593 12.6667C48.7722 12.9961 48.8463 13.416 48.6816 13.9265C48.6651 13.9759 48.6487 14.0171 48.6322 14.05C48.6157 14.083 48.6075 14.1077 48.6075 14.1241L48.5581 14.2724C48.7887 14.3053 49.0027 14.33 49.2004 14.3465C49.4144 14.3629 49.6368 14.3876 49.8673 14.4206H50.0402C50.0897 14.4206 50.1638 14.4041 50.2626 14.3712C50.5096 14.3053 50.7484 14.2477 50.979 14.1982C51.226 14.1324 51.4648 14.0665 51.6953 14.0006C52.2223 13.8524 52.7328 13.7124 53.2269 13.5807C53.7374 13.4325 54.2562 13.2925 54.7832 13.1607C54.9478 13.1278 55.1043 13.0866 55.2525 13.0372C55.4172 12.9878 55.5819 12.9466 55.7466 12.9137C55.8124 12.8972 55.8783 12.8808 55.9442 12.8643C56.0265 12.8478 56.1006 12.8396 56.1665 12.8396C56.3477 12.8396 56.4959 12.9631 56.6111 13.2101Z" fill="#1B2149"/>
</svg>
